<?xml version="1.0" standalone="no"?>
<!DOCTYPE svg PUBLIC "-//W3C//DTD SVG 20010904//EN"
 "http://www.w3.org/TR/2001/REC-SVG-20010904/DTD/svg10.dtd">
<svg version="1.0" xmlns="http://www.w3.org/2000/svg"
 width="1560.000000pt" height="722.000000pt" viewBox="0 0 1560.000000 722.000000"
 preserveAspectRatio="xMidYMid meet">

<g transform="translate(0.000000,722.000000) scale(0.100000,-0.100000)"
fill="#000000" stroke="none">
<path d="M6464 7027 c-104 -51 -203 -99 -220 -107 l-31 -15 43 -240 c34 -188
43 -264 44 -352 0 -97 2 -114 18 -122 9 -5 48 -54 85 -109 65 -95 68 -102 54
-123 -21 -29 -7 -59 63 -134 30 -33 68 -74 84 -92 l28 -32 -50 -88 -50 -88
-21 -165 c-39 -317 -51 -457 -67 -814 l-16 -360 -46 -55 c-26 -31 -128 -144
-228 -252 -116 -126 -222 -253 -295 -355 -127 -176 -139 -198 -139 -253 0 -30
-6 -42 -25 -55 -15 -10 -25 -26 -25 -41 0 -20 -6 -25 -35 -31 -19 -3 -39 -11
-44 -18 -9 -11 49 -321 66 -349 4 -7 47 -69 95 -139 l89 -128 79 0 c70 0 81
-2 94 -22 9 -12 16 -38 16 -58 1 -42 20 -70 48 -70 12 0 23 -8 27 -20 3 -11
15 -20 25 -20 14 0 20 -10 25 -40 4 -22 11 -40 17 -40 5 0 8 -26 7 -60 -2 -46
2 -64 16 -80 10 -11 25 -18 33 -15 10 3 12 0 8 -10 -3 -8 -2 -15 2 -15 4 0 6
-18 4 -40 -3 -33 -1 -40 13 -40 13 0 15 -3 7 -12 -12 -15 -7 -87 7 -101 6 -6
5 -17 -4 -31 -7 -11 -18 -51 -24 -87 -9 -54 -8 -75 5 -118 8 -29 13 -60 10
-68 -3 -8 3 -31 13 -51 11 -21 17 -49 14 -63 -3 -19 1 -28 20 -38 13 -7 29
-28 36 -46 7 -19 22 -42 35 -52 12 -10 31 -31 41 -47 11 -16 32 -37 48 -46
l29 -18 -39 -6 c-21 -4 -52 -2 -67 4 -16 6 -52 10 -81 9 -29 -1 -57 1 -63 5
-6 3 -26 -1 -45 -10 -33 -16 -40 -16 -101 0 -120 30 -216 18 -216 -28 0 -7
-13 -25 -30 -41 -35 -34 -54 -81 -37 -92 7 -5 29 -29 50 -56 21 -26 52 -54 68
-62 21 -11 29 -23 29 -41 0 -15 12 -38 28 -54 15 -15 52 -53 82 -84 44 -45 61
-56 87 -56 18 0 32 -3 30 -8 -4 -14 43 -52 67 -52 13 0 27 -7 30 -16 3 -8 11
-12 17 -8 7 4 9 3 6 -3 -4 -6 10 -48 29 -94 20 -46 41 -97 46 -114 6 -16 17
-49 25 -72 8 -24 26 -52 40 -63 20 -16 24 -25 18 -50 -4 -16 -10 -32 -15 -35
-20 -13 4 -35 36 -35 19 0 45 -7 59 -16 30 -20 91 -9 119 21 12 13 40 26 63
30 24 4 45 11 49 16 3 5 12 9 21 9 24 0 53 30 46 48 -5 10 -3 13 6 8 7 -5 18
0 26 10 14 18 14 18 15 1 0 -10 7 -20 15 -23 8 -4 15 -15 15 -25 0 -10 6 -19
13 -19 7 0 24 -14 39 -30 24 -27 29 -29 53 -18 14 6 24 17 21 24 -4 11 23 19
84 26 8 0 21 10 28 20 7 10 17 16 22 13 4 -3 10 3 12 13 3 11 23 23 49 31 50
15 88 31 106 44 7 5 41 11 75 12 125 7 313 27 328 34 8 5 19 22 23 38 6 20 21
36 42 46 18 9 41 28 52 42 10 15 30 42 46 60 15 18 27 37 27 43 0 6 9 17 20
25 20 14 20 15 -14 45 -19 17 -42 35 -51 40 -15 8 -14 12 8 36 24 26 30 27
139 31 145 4 268 16 268 25 0 16 49 27 105 23 77 -6 108 6 129 51 10 20 23 36
29 35 25 -3 37 2 37 15 0 8 16 16 40 20 22 3 40 10 40 15 0 5 16 25 35 44 19
19 35 42 35 52 0 9 4 14 9 11 5 -4 7 3 4 14 -4 13 0 20 9 20 8 0 27 18 44 40
21 28 36 40 55 40 28 0 49 19 70 65 11 22 24 32 57 40 24 5 42 12 41 15 -1 3
6 22 16 44 15 30 16 42 7 57 -16 26 -15 54 3 69 8 7 15 25 15 40 0 31 17 49
45 49 41 -1 142 21 193 41 50 19 56 19 111 5 99 -25 103 -24 129 48 23 66 29
117 12 117 -5 0 -10 11 -10 25 0 21 -5 25 -30 25 -33 0 -34 1 -95 53 l-39 35
18 78 c10 44 20 87 23 97 4 16 0 17 -31 12 -34 -7 -36 -6 -36 21 0 28 -15 84
-31 116 -5 11 -3 27 6 45 24 46 19 57 -50 91 -46 22 -65 28 -65 18 0 -19 -19
-32 -57 -39 -27 -5 -34 -2 -51 25 -18 28 -19 35 -7 69 19 52 55 99 77 99 16 0
72 53 91 86 5 9 3 24 -7 39 -9 13 -16 34 -16 47 0 12 -8 31 -19 42 -42 47 -27
110 33 137 11 5 35 18 51 29 17 11 37 23 46 26 20 7 37 42 31 66 -2 9 -13 18
-25 20 -19 3 -21 8 -19 44 2 26 -2 47 -11 56 -21 21 -10 33 53 53 70 22 72 24
61 63 -8 27 -7 34 9 42 10 5 20 20 22 32 2 13 17 32 35 43 18 11 32 27 33 36
0 9 6 22 13 28 22 18 20 85 -4 115 l-20 26 43 39 c39 37 45 39 88 34 26 -3 70
1 103 10 56 15 112 13 205 -8 l22 -5 0 844 0 844 -342 185 c-189 102 -468 253
-621 336 -153 83 -282 149 -288 145 -5 -3 -8 0 -7 8 2 8 -6 13 -19 12 -12 0
-20 3 -17 7 7 12 -34 31 -48 23 -6 -4 -8 -3 -5 3 8 12 -81 56 -95 47 -7 -4 -8
-2 -4 4 8 14 -150 96 -166 86 -7 -4 -8 -3 -4 4 8 14 -130 86 -146 76 -7 -4 -8
-3 -4 4 8 14 -150 96 -166 86 -7 -4 -8 -3 -4 4 9 14 -110 76 -127 66 -7 -4 -9
-4 -5 0 4 5 -1 16 -10 26 -9 9 -213 117 -452 240 -239 122 -526 269 -636 326
l-202 104 -188 -93z m704 -219 c723 -381 705 -372 710 -385 2 -7 -9 -22 -24
-35 -37 -32 -54 -77 -54 -143 0 -53 -3 -59 -46 -105 -47 -50 -93 -80 -124 -80
-9 0 -38 -7 -64 -16 -37 -13 -59 -31 -106 -87 -56 -67 -60 -74 -60 -123 0 -42
3 -53 19 -57 14 -3 21 -20 29 -68 24 -141 25 -164 7 -179 -15 -13 -20 -11 -39
15 -11 17 -31 39 -43 51 -13 12 -32 41 -43 66 -19 43 -19 47 -3 78 16 33 16
34 -12 55 -50 41 -61 34 -179 -119 l-110 -141 -57 -233 -57 -233 -227 -469
c-126 -258 -232 -467 -237 -464 -5 3 -4 12 3 20 7 9 18 149 30 411 17 357 50
733 79 902 6 33 29 87 61 142 l51 90 -28 36 c-15 20 -55 66 -89 102 -73 78
-80 93 -55 116 18 17 16 21 -60 135 -43 64 -86 120 -94 123 -13 5 -16 26 -16
124 0 93 -9 164 -39 333 -22 118 -36 216 -33 218 4 1 93 44 197 96 105 52 192
95 193 95 2 1 236 -122 520 -271z m882 -433 c0 -3 -18 4 -40 15 -22 11 -40 23
-40 25 0 3 18 -4 40 -15 22 -11 40 -23 40 -25z m263 -172 c216 -113 397 -211
404 -217 8 -8 -13 -63 -86 -221 l-98 -210 -206 -3 -207 -2 0 -149 c0 -81 -3
-216 -7 -299 l-6 -152 -59 0 c-38 0 -58 -4 -56 -11 2 -6 57 -71 123 -144 l120
-134 151 0 c127 -1 153 -4 158 -16 7 -19 -30 -443 -44 -506 -10 -41 -7 -54 29
-155 21 -60 57 -148 80 -196 l40 -88 -46 -35 c-26 -20 -56 -38 -67 -40 -180
-42 -204 -44 -323 -22 l-113 21 -31 -30 c-17 -16 -51 -58 -77 -94 -57 -81
-133 -167 -179 -202 -49 -38 -185 -68 -305 -68 -89 0 -96 2 -134 30 -34 24
-47 45 -80 127 -34 85 -51 110 -135 208 l-96 110 -292 189 c-160 103 -291 192
-291 197 0 5 105 226 234 492 l233 483 53 225 54 224 98 126 c54 70 105 130
115 133 27 11 39 -11 18 -34 -18 -20 -18 -22 15 -90 19 -39 37 -70 42 -70 4 0
26 -25 48 -55 22 -30 45 -55 50 -55 5 0 21 12 35 27 18 20 25 39 25 69 0 76
-35 244 -51 244 -5 0 -9 16 -9 36 0 71 139 199 193 178 23 -8 89 32 144 88
l51 53 4 79 c5 75 7 80 42 112 20 18 36 38 36 43 0 6 3 11 6 11 3 0 182 -93
397 -207z m-93 82 c0 -3 -18 4 -40 15 -22 11 -40 23 -40 25 0 3 18 -4 40 -15
22 -11 40 -23 40 -25z m170 -91 c0 -2 -13 2 -30 11 -16 9 -30 18 -30 21 0 2
14 -2 30 -11 17 -9 30 -18 30 -21z m150 -80 c0 -2 -9 0 -20 6 -11 6 -20 13
-20 16 0 2 9 0 20 -6 11 -6 20 -13 20 -16z m485 -287 l270 -143 7 -730 c4
-474 3 -733 -4 -741 -5 -7 -33 -19 -61 -27 -66 -19 -89 -36 -128 -92 l-31 -46
21 -100 c12 -54 28 -112 36 -128 20 -39 19 -46 -7 -55 -30 -9 -177 -25 -254
-28 -65 -2 -94 -17 -94 -49 0 -14 -19 -27 -72 -52 -62 -28 -78 -31 -102 -23
l-30 10 34 29 c19 15 40 28 47 28 7 0 13 1 13 3 0 2 -23 54 -50 116 -28 62
-66 154 -84 204 -31 88 -32 94 -20 152 17 84 48 467 40 498 l-6 26 -148 -6
-148 -6 -123 134 -124 134 62 3 61 3 0 294 0 295 63 1 c34 1 127 4 206 8 l144
6 63 135 c35 74 80 170 100 213 20 42 39 77 42 77 4 0 129 -65 277 -143z m630
-334 l335 -177 0 -824 c0 -732 -2 -823 -15 -818 -39 14 -144 18 -181 5 -21 -7
-67 -12 -102 -10 -60 2 -65 0 -107 -36 -24 -21 -44 -46 -45 -55 0 -10 -2 -18
-5 -18 -12 0 -217 154 -222 166 -3 8 -36 23 -74 34 -61 19 -71 25 -88 58 -25
48 -55 203 -47 237 10 41 79 102 128 115 24 6 54 16 67 23 l23 11 -3 733 c-2
403 -3 733 -2 733 2 0 153 -80 338 -177z m-3218 -1405 c10 -13 25 -24 33 -24
22 -2 575 -364 572 -375 -1 -5 -60 -83 -132 -173 -127 -160 -130 -166 -212
-351 l-83 -188 -57 -25 c-54 -23 -58 -27 -58 -59 0 -52 14 -70 55 -71 49 -2
55 -7 45 -42 -6 -21 -4 -41 4 -63 9 -20 12 -54 9 -89 -5 -53 -7 -58 -30 -58
-47 0 -121 40 -137 75 -14 30 -14 35 1 65 15 31 15 34 -1 45 -9 7 -16 18 -16
26 0 29 -16 42 -37 30 -17 -8 -24 -6 -42 13 -19 20 -21 28 -12 45 9 17 8 22
-9 31 -17 9 -27 4 -71 -40 -27 -27 -56 -50 -64 -50 -8 0 -15 -6 -15 -14 0 -26
-33 -28 -52 -4 -9 13 -23 23 -30 23 -7 0 -13 9 -13 19 0 11 -8 20 -18 22 -27
4 -32 11 -18 28 10 12 7 23 -19 60 -31 46 -75 69 -89 47 -10 -15 -111 78 -111
102 0 11 -8 17 -24 17 -14 0 -31 7 -40 15 -8 8 -26 15 -39 15 -39 0 -42 43 -5
65 25 14 28 21 23 48 -9 48 13 91 133 256 100 138 510 601 532 601 5 0 17 -10
27 -22z m2803 -344 c30 -9 60 -24 66 -33 16 -22 237 -181 253 -181 16 0 14
-75 -3 -90 -8 -6 -13 -17 -11 -23 2 -7 -14 -24 -35 -39 -24 -16 -40 -36 -40
-47 0 -11 -9 -22 -19 -26 -17 -5 -18 -10 -10 -38 5 -17 9 -35 9 -38 0 -3 -27
-14 -60 -24 -49 -15 -61 -23 -69 -47 -8 -23 -7 -30 5 -35 10 -4 15 -17 14 -42
-3 -57 -1 -61 26 -71 14 -6 24 -15 22 -22 -4 -11 -76 -56 -124 -77 -12 -5 -24
-17 -27 -25 -5 -14 -10 -14 -26 -4 -10 6 -17 17 -15 23 5 13 -159 68 -234 79
-41 6 -43 5 -53 -22 -14 -42 -51 -56 -81 -33 -13 11 -40 26 -60 34 -27 11 -43
28 -61 64 -37 72 -72 88 -182 86 l-90 -2 -47 -52 -48 -53 0 281 0 281 73 16
c112 26 152 29 189 17 32 -11 43 -8 117 25 67 31 81 41 81 60 0 29 10 31 155
40 66 4 136 13 155 20 47 17 67 17 130 -2z m-2083 -169 c76 -89 95 -119 127
-199 35 -89 52 -112 113 -151 2 -1 -40 -93 -91 -206 -63 -134 -102 -207 -115
-214 -28 -13 -31 -26 -37 -125 -7 -104 -19 -133 -51 -125 -13 3 -37 -2 -54
-11 -17 -8 -37 -13 -45 -10 -8 3 -49 -1 -92 -9 -121 -22 -252 -24 -252 -3 0 6
-8 20 -17 31 -13 14 -18 37 -19 86 -1 36 -5 85 -9 109 -7 37 -5 42 11 42 36 0
-20 41 -64 47 -30 4 -42 11 -46 27 -12 44 -6 53 52 78 l57 25 84 189 c82 185
86 192 215 356 72 92 134 167 137 167 4 1 47 -46 96 -104z m1072 10 c46 -8 85
-15 87 -15 2 0 4 -148 4 -328 l0 -329 51 -28 51 -27 -7 -45 c-5 -33 -3 -49 8
-61 21 -25 33 -211 15 -235 -17 -23 -116 -34 -170 -19 -25 7 -39 7 -47 -1 -6
-6 -29 -10 -51 -8 -22 1 -40 -2 -40 -7 0 -17 -56 -68 -70 -64 -8 3 -11 -1 -7
-10 9 -24 -62 -52 -110 -44 -21 4 -90 9 -154 12 l-116 6 -74 -42 c-41 -23 -81
-48 -89 -55 -8 -7 -34 -16 -57 -20 -34 -5 -55 -19 -106 -68 -55 -54 -65 -61
-85 -52 -12 5 -22 15 -22 21 0 6 -11 21 -25 34 -16 15 -25 34 -25 54 0 21 -7
36 -21 44 -11 7 -27 29 -35 48 -8 18 -18 34 -24 34 -5 0 -16 15 -25 33 -12 26
-13 40 -6 60 6 15 14 27 19 27 5 0 23 20 40 44 29 40 32 52 31 108 -2 88 8
132 33 143 14 7 52 79 116 218 l95 207 104 0 c119 0 230 21 288 55 43 25 126
115 189 205 63 88 107 130 130 125 12 -3 59 -11 105 -20z m-2479 -471 c0 -7
14 -14 33 -16 23 -2 33 -8 35 -23 1 -11 17 -29 33 -40 17 -11 41 -35 53 -53
20 -28 25 -30 36 -17 22 26 48 17 77 -26 25 -37 26 -42 11 -53 -15 -11 -13
-16 21 -49 21 -20 43 -37 50 -37 6 0 11 -3 11 -7 0 -5 7 -16 14 -26 13 -17 16
-17 45 -2 17 8 31 20 31 25 0 6 6 10 13 10 7 0 23 13 35 30 40 54 99 80 73 32
-8 -16 -4 -24 22 -50 23 -22 36 -29 47 -22 18 11 31 3 24 -15 -4 -8 1 -17 9
-21 15 -5 13 -38 -4 -60 -5 -6 0 -27 11 -49 24 -47 25 -55 5 -55 -13 0 -14 -4
-5 -20 8 -15 8 -20 -1 -20 -8 0 -10 -15 -6 -49 3 -27 1 -53 -4 -58 -16 -16
-64 -1 -98 29 -33 30 -104 48 -115 29 -4 -6 -32 -11 -63 -11 -40 0 -59 -5 -68
-16 -10 -15 -14 -12 -34 20 l-23 36 -81 0 -82 1 -91 132 -90 132 -28 135 c-15
74 -30 145 -33 156 -4 17 2 24 24 32 41 14 113 12 113 -4z m2886 -30 c25 -12
41 -29 54 -58 20 -46 43 -70 80 -81 13 -4 37 -17 52 -28 24 -18 30 -18 58 -7
18 7 33 22 36 36 5 19 13 24 40 24 44 0 224 -58 224 -72 0 -6 8 -17 17 -23 17
-12 17 -14 -2 -36 -14 -16 -16 -23 -7 -26 6 -3 12 -13 12 -23 0 -10 11 -32 26
-49 14 -17 24 -36 22 -43 -1 -7 3 -23 10 -36 11 -19 10 -27 -13 -56 -14 -19
-37 -37 -51 -40 -24 -6 -73 -52 -74 -68 0 -4 -12 -33 -26 -64 -25 -54 -27 -56
-57 -50 -41 8 -52 20 -39 43 8 13 7 22 -5 36 -13 13 -14 22 -5 41 6 13 8 33 5
45 -6 24 -5 24 -35 12 -33 -12 -146 4 -168 24 -17 16 -19 15 -31 -7 -16 -31
-28 -38 -67 -38 -42 0 -99 -38 -94 -63 2 -10 16 -20 33 -24 16 -3 39 -17 50
-31 18 -24 19 -28 5 -38 -18 -13 -21 -50 -6 -59 6 -4 8 -15 5 -25 -4 -13 2
-21 26 -29 18 -6 41 -11 53 -11 12 0 28 -5 36 -10 12 -8 11 -12 -7 -32 -22
-23 -22 -24 -5 -70 l16 -47 -39 -81 c-21 -44 -41 -80 -43 -80 -3 0 -69 34
-147 75 -133 70 -147 75 -204 75 -48 0 -61 -3 -61 -15 0 -8 -7 -15 -15 -15
-44 0 -15 147 41 201 26 25 32 37 27 59 -4 21 1 33 21 52 30 28 27 48 -10 73
-33 22 -30 35 9 35 18 0 43 7 56 16 23 17 24 20 19 131 -3 65 -10 119 -17 126
-6 6 -11 36 -11 67 l0 57 -48 22 c-47 22 -48 24 -43 56 4 20 26 57 55 91 47
54 51 56 88 51 21 -3 41 -1 44 5 8 13 63 4 110 -18z m-2133 -506 c12 -7 44
-15 72 -18 42 -4 52 -9 63 -32 7 -16 23 -29 40 -32 34 -8 158 0 237 15 33 6
72 10 88 10 15 -1 40 5 55 13 37 19 60 6 33 -18 -11 -10 -25 -34 -32 -53 -10
-32 -8 -37 25 -78 20 -24 36 -47 36 -52 0 -5 14 -22 30 -38 17 -16 30 -39 30
-53 0 -13 11 -37 25 -54 14 -16 25 -36 25 -44 0 -8 8 -14 18 -14 34 0 50 -22
41 -55 -6 -21 -26 -41 -69 -68 -54 -35 -64 -38 -102 -32 -24 4 -48 11 -54 16
-7 5 -30 3 -57 -5 l-45 -14 -33 34 c-28 29 -40 34 -79 34 -43 0 -48 3 -65 34
-20 36 -36 43 -130 53 -35 3 -55 11 -67 26 -14 18 -19 19 -32 8 -9 -8 -16 -9
-16 -3 0 21 -32 42 -62 42 -17 0 -39 7 -49 16 -16 14 -22 13 -71 -12 -33 -18
-70 -28 -100 -29 -45 -2 -48 0 -48 24 0 14 -7 39 -15 55 -8 15 -15 41 -15 57
0 22 -5 29 -19 29 -11 0 -21 7 -23 16 -2 9 -19 22 -38 28 -27 9 -36 17 -38 39
-2 19 1 27 12 27 9 0 16 7 16 15 0 12 13 15 59 15 33 0 63 5 67 11 9 16 53 2
94 -31 20 -15 52 -31 71 -35 48 -9 64 11 56 69 -5 35 -3 45 9 50 13 5 14 9 5
20 -9 11 -9 15 1 19 21 9 28 8 51 -5z m2380 -30 c15 1 27 -3 27 -8 0 -5 14 -5
32 1 18 5 34 9 36 9 1 0 -1 -18 -4 -40 -4 -26 -2 -45 6 -55 10 -12 10 -18 0
-31 -11 -12 -11 -18 2 -30 21 -22 84 -34 98 -20 8 8 14 7 20 -5 30 -52 43 -59
90 -48 25 7 51 18 59 25 12 11 21 9 53 -7 42 -21 46 -33 22 -67 -14 -21 -14
-25 -1 -40 18 -21 29 -72 30 -133 l0 -47 31 9 c17 5 32 9 33 9 0 0 -5 -26 -13
-57 -21 -92 -18 -117 19 -152 73 -71 76 -74 102 -69 21 4 25 1 25 -18 0 -12 5
-24 12 -26 8 -3 4 -24 -12 -70 l-24 -65 -77 17 c-45 10 -83 14 -91 9 -32 -21
-44 -7 -97 122 -30 72 -61 137 -68 145 -8 8 -27 14 -42 14 -15 0 -32 5 -38 11
-8 8 -57 2 -175 -20 -91 -17 -168 -31 -171 -31 -4 0 -7 8 -7 18 0 10 -5 23
-11 29 -7 7 0 31 25 82 38 74 44 113 24 156 -10 22 -8 28 10 48 12 13 22 28
22 34 0 14 -45 32 -90 35 -25 2 -35 8 -35 20 0 9 -4 20 -8 24 -12 13 -8 42 8
48 31 12 -19 81 -66 91 -16 4 -29 10 -29 15 0 18 59 50 92 50 19 0 43 7 54 15
14 11 30 13 59 8 22 -4 52 -6 68 -5z m-604 -68 c43 -12 111 -59 111 -76 0 -7
-6 -17 -14 -21 -20 -12 -37 -50 -30 -68 4 -10 -4 -28 -24 -48 -18 -20 -39 -60
-53 -104 -26 -82 -33 -86 -122 -59 l-45 14 -34 -35 c-25 -25 -32 -41 -30 -63
4 -36 -34 -107 -62 -116 -12 -4 -24 -1 -31 10 -7 9 -26 16 -47 16 -35 0 -36
-1 -42 -50 -12 -90 12 -131 94 -164 24 -9 63 -28 87 -41 24 -14 47 -24 51 -23
11 3 82 -23 82 -30 1 -4 3 -32 5 -62 2 -30 1 -71 -3 -90 -7 -33 -10 -35 -50
-36 -45 -1 -92 -26 -92 -49 0 -24 -34 -84 -47 -85 -7 0 -13 -4 -13 -10 0 -5
-7 -10 -15 -10 -8 0 -15 -8 -15 -17 -1 -36 -25 -52 -81 -55 -47 -3 -54 -6 -57
-25 -4 -27 -3 -27 -34 -11 -13 7 -22 20 -20 29 6 31 -91 119 -131 119 -7 0
-23 9 -36 21 -22 20 -38 27 -73 28 -10 1 -33 14 -51 31 -34 29 -35 29 -98 19
-37 -7 -73 -20 -86 -31 -24 -23 -73 -18 -73 6 0 8 -10 16 -22 18 -19 2 -23 10
-26 43 -1 22 -7 49 -12 60 -14 30 -20 107 -20 240 -1 140 7 195 25 195 32 0
155 86 155 109 0 9 6 28 14 42 7 14 16 37 20 52 9 37 90 97 131 97 19 0 39 8
50 20 10 11 24 20 31 20 7 0 19 6 26 13 7 7 33 25 59 39 44 26 49 26 162 21
64 -3 117 -10 117 -14 0 -18 80 -9 117 13 42 24 113 92 113 108 0 6 11 10 25
10 14 0 25 -5 25 -11 0 -7 9 -5 23 4 27 19 25 19 66 7z m-1845 -285 c11 -8 34
-15 52 -15 26 0 33 -5 38 -25 6 -24 24 -29 38 -10 4 5 10 2 14 -8 5 -13 18
-17 54 -17 59 0 132 -31 150 -65 11 -21 20 -25 59 -25 38 0 51 -5 82 -36 35
-34 38 -35 78 -24 28 7 47 8 60 0 11 -5 29 -10 41 -10 17 0 21 -4 15 -17 -4
-10 -8 -69 -10 -131 -2 -62 -7 -122 -10 -132 -3 -11 -1 -30 6 -42 7 -13 14
-43 15 -68 8 -124 26 -180 56 -180 5 0 16 -7 24 -15 8 -8 20 -18 27 -22 23
-15 98 -136 104 -167 3 -17 16 -43 30 -57 l23 -26 -25 -11 c-37 -17 -43 -16
-85 18 -21 17 -50 30 -64 30 -15 0 -37 10 -50 22 -13 13 -37 24 -55 25 -18 0
-40 8 -50 17 -10 9 -21 13 -24 9 -8 -8 -77 26 -94 47 -7 8 -11 23 -9 32 2 10
-2 23 -10 29 -11 9 -18 8 -32 -5 -13 -11 -36 -16 -73 -16 -46 1 -57 4 -73 27
-16 22 -18 37 -13 113 6 75 4 89 -9 94 -9 3 -19 4 -22 2 -20 -11 -124 15 -155
38 -19 14 -41 26 -50 26 -9 0 -19 9 -22 20 -3 11 -14 24 -24 30 -10 5 -21 23
-24 40 -6 27 -10 30 -43 30 -26 0 -48 -9 -77 -32 l-40 -32 7 59 c5 33 8 67 8
75 1 8 10 28 21 43 18 27 18 29 1 48 -15 16 -16 25 -6 56 9 30 9 42 -3 60 -21
31 -19 40 14 59 26 15 29 22 24 48 -3 17 -10 37 -16 43 -7 10 5 19 44 38 63
29 59 28 83 10z m-152 -48 c23 -18 28 -70 7 -75 -9 -1 -20 8 -27 23 -7 16 -19
25 -29 23 -12 -2 -19 4 -21 20 -3 18 1 22 25 22 15 0 36 -6 45 -13z m1913 -68
c33 -5 65 -16 71 -24 14 -19 54 -19 54 -1 0 10 16 15 53 18 46 4 61 0 132 -37
44 -24 117 -62 163 -85 69 -35 82 -46 82 -66 0 -20 4 -23 23 -19 93 22 329 61
332 54 3 -4 22 -10 44 -14 l38 -6 57 -132 c31 -73 56 -135 56 -139 0 -13 -43
-31 -85 -35 -22 -2 -57 -5 -77 -7 -48 -4 -68 -21 -68 -57 0 -19 -5 -29 -15
-29 -13 0 -15 -13 -13 -74 3 -82 -14 -116 -58 -116 -21 0 -64 -45 -64 -67 0
-20 -36 -42 -58 -36 -12 3 -22 1 -22 -3 0 -11 -64 -84 -74 -84 -13 0 -36 -28
-36 -44 0 -9 -4 -16 -10 -16 -5 0 -10 -7 -10 -15 0 -21 -68 -85 -90 -85 -9 0
-23 -7 -30 -15 -7 -9 -20 -15 -29 -13 -9 2 -23 -12 -36 -36 -24 -46 -53 -57
-116 -46 -31 6 -54 4 -78 -6 -19 -8 -35 -13 -36 -12 -2 2 -28 82 -60 178 -31
96 -63 187 -71 202 -8 15 -10 29 -5 32 15 9 23 76 11 91 -8 9 -6 35 8 97 11
52 15 96 11 118 -4 19 -3 40 2 46 13 16 -23 50 -68 64 -21 6 -60 22 -88 35
-27 13 -66 30 -85 39 -74 32 -84 48 -81 144 1 40 3 42 30 42 21 0 32 -6 36
-20 7 -23 13 -24 48 -11 33 13 80 98 72 130 -7 29 40 85 65 75 8 -3 42 -10 75
-15z m-1795 -389 c0 -11 9 -29 19 -39 11 -11 24 -29 31 -40 6 -12 17 -21 25
-21 8 0 34 -13 57 -30 34 -24 57 -31 112 -35 39 -3 71 -7 71 -8 1 -1 -3 -39
-8 -84 -9 -69 -8 -85 5 -100 8 -10 22 -35 32 -55 16 -36 16 -38 -10 -90 -15
-29 -45 -68 -66 -87 -35 -31 -41 -33 -63 -21 -33 18 -53 7 -74 -42 -10 -24
-26 -50 -35 -58 -10 -7 -31 -33 -48 -57 l-30 -44 -56 32 c-68 38 -73 45 -67
84 4 24 -1 38 -29 70 -28 32 -37 38 -47 28 -7 -7 -25 -13 -40 -13 -24 0 -26 3
-25 37 1 33 5 40 36 53 34 15 108 18 129 6 5 -4 12 -2 16 3 3 6 20 5 44 -4 43
-15 125 -4 150 20 11 11 8 16 -20 30 -43 22 -136 120 -154 163 -8 18 -21 35
-30 38 -9 4 -15 18 -15 35 0 17 -7 40 -15 53 -9 13 -15 36 -14 52 2 16 -1 40
-6 54 -6 20 -2 29 31 57 46 38 94 45 94 13z m1760 -280 c0 -3 -4 -20 -10 -39
-8 -28 -6 -36 7 -46 14 -11 15 -16 4 -28 -23 -28 -13 -80 53 -277 36 -107 66
-197 66 -201 0 -4 -10 -7 -22 -7 -117 -1 -326 -15 -340 -23 -41 -22 -70 -61
-63 -86 3 -15 11 -23 19 -20 21 8 58 -36 49 -59 -8 -23 -63 -96 -80 -107 -7
-4 -13 -13 -13 -20 0 -7 -17 -21 -37 -32 -23 -12 -40 -30 -43 -45 -5 -21 -14
-26 -50 -32 -25 -3 -59 -7 -76 -7 -32 -1 -32 -1 -39 63 -3 35 -13 72 -20 83
-8 10 -15 28 -15 39 0 12 -6 27 -14 33 -8 7 -16 33 -19 59 -3 26 -9 62 -13 80
-5 28 -3 34 14 39 18 4 68 71 60 78 -2 1 -26 7 -53 13 -83 18 -104 29 -122 67
-12 24 -23 35 -39 35 -27 0 -57 44 -49 71 4 10 24 28 46 40 41 20 42 32 8 56
-9 7 -19 26 -23 44 -3 17 -24 58 -46 91 -22 33 -40 66 -40 73 0 25 49 53 107
60 53 6 59 5 79 -18 12 -14 25 -23 28 -20 3 4 6 1 6 -5 0 -7 9 -12 21 -12 29
0 169 -68 202 -98 19 -18 27 -36 27 -59 0 -18 4 -33 9 -33 5 0 22 -3 38 -6 27
-5 31 -3 37 20 6 24 11 26 57 26 52 0 79 15 79 44 0 9 6 16 13 16 14 0 47 35
47 50 0 6 7 10 15 10 8 0 15 9 15 20 0 20 18 60 32 70 8 7 88 7 88 0z m-1250
-121 c0 -28 18 -59 34 -59 8 0 19 -7 26 -15 7 -8 23 -15 37 -15 13 0 31 -7 39
-15 9 -8 27 -15 42 -15 15 0 41 -9 57 -20 17 -11 37 -20 45 -20 34 0 125 -63
115 -80 -5 -8 -11 -8 -22 1 -11 10 -22 10 -49 0 -18 -7 -38 -9 -44 -6 -5 3
-19 0 -31 -8 -13 -9 -16 -17 -10 -22 23 -13 7 -69 -27 -97 l-32 -26 31 -25 31
-24 -23 -17 c-31 -21 -155 -22 -183 -1 -11 8 -39 15 -63 15 -30 0 -43 4 -43
14 0 7 -7 19 -15 26 -12 10 -23 6 -61 -25 -39 -32 -49 -37 -65 -27 -25 16 -39
15 -61 -4 -22 -21 -153 -35 -185 -21 -44 20 -25 83 48 162 15 17 35 47 43 67
20 46 33 54 55 34 25 -22 30 -21 82 27 47 43 89 120 89 163 0 22 4 24 49 24
31 0 53 5 61 15 17 21 30 19 30 -6z m-825 -110 c49 -14 55 -22 55 -76 0 -42 1
-43 33 -43 18 0 39 6 46 13 19 18 61 -38 61 -83 0 -47 6 -53 75 -92 63 -36 77
-60 57 -102 -6 -12 -13 -43 -16 -70 -3 -27 -12 -59 -19 -70 -8 -12 -17 -34
-21 -51 l-8 -30 -9 24 c-12 31 -38 50 -67 51 -13 0 -34 13 -49 30 -13 17 -32
30 -41 30 -10 0 -30 9 -47 20 -50 33 -145 132 -145 152 0 25 -29 68 -45 68
-16 0 -105 100 -105 117 0 7 16 33 35 59 19 25 35 50 35 55 0 13 127 11 175
-2z m1221 -180 c17 -28 31 -39 48 -39 19 0 27 -8 36 -34 8 -26 20 -37 54 -50
25 -9 60 -20 80 -23 l35 -5 -15 -29 c-8 -16 -21 -29 -28 -29 -30 0 -37 -26
-21 -71 8 -24 15 -58 15 -76 0 -28 8 -49 44 -118 6 -11 13 -48 16 -81 l5 -62
-55 -12 c-30 -7 -80 -12 -110 -11 -38 1 -69 -5 -100 -20 -125 -60 -124 -60
-160 10 l-30 61 23 5 c12 3 29 18 38 33 15 26 14 29 -34 99 -49 70 -50 72 -34
97 12 17 17 47 17 94 0 57 4 72 21 88 l21 19 -29 23 -28 23 28 25 c23 20 29
33 29 69 1 41 3 45 27 46 14 0 35 4 46 8 26 11 31 7 61 -40z m-474 -170 c5
-19 24 -48 43 -64 l34 -31 -21 -32 c-11 -18 -26 -32 -33 -32 -8 0 -20 -6 -27
-13 -7 -7 -35 -18 -63 -25 -27 -7 -57 -20 -65 -30 -8 -9 -19 -17 -25 -17 -20
0 -74 -39 -84 -62 -6 -13 -19 -23 -31 -23 -12 0 -34 -7 -49 -15 -26 -13 -30
-13 -46 5 -9 10 -30 22 -45 25 -62 14 -75 72 -29 137 11 14 19 41 19 60 0 74
0 73 117 75 86 1 108 4 115 17 10 18 43 21 53 6 10 -16 19 -12 66 25 24 19 48
33 54 32 5 -2 13 -19 17 -38z m108 -16 c19 -13 45 -18 103 -18 l77 0 0 -58 c0
-43 -5 -65 -21 -87 l-22 -28 51 -73 c56 -80 56 -102 2 -122 l-28 -11 34 -68
c19 -37 34 -70 34 -72 0 -13 -44 -44 -55 -40 -7 3 -15 -2 -18 -10 -4 -10 -19
-16 -42 -16 -28 0 -35 -4 -35 -20 0 -11 -3 -20 -8 -20 -10 0 -62 59 -62 71 0
4 -9 13 -20 19 -12 6 -20 21 -20 35 0 30 -9 31 -44 4 -14 -11 -26 -17 -26 -12
0 4 -7 0 -15 -10 -7 -11 -11 -25 -9 -31 5 -13 -48 -37 -111 -51 -16 -3 -39
-15 -51 -26 -11 -11 -35 -24 -53 -29 -26 -7 -34 -6 -44 11 -7 12 -23 19 -43
19 l-31 0 8 43 c4 23 8 45 9 48 0 4 -11 10 -24 13 -16 4 -30 21 -45 55 -11 27
-21 54 -21 59 0 6 -11 34 -25 64 -32 68 -33 84 -3 64 12 -9 30 -16 40 -16 10
0 25 -11 34 -25 20 -30 28 -31 63 -6 17 12 36 18 49 14 17 -4 24 1 31 20 12
32 60 69 82 64 11 -3 21 4 27 19 8 17 22 24 59 29 26 4 53 12 58 19 6 6 22 17
38 23 15 7 35 29 44 49 l18 36 -40 34 c-33 28 -37 36 -25 44 23 15 53 12 80
-7z"/>

</g>
</svg>
