<?xml version="1.0" standalone="no"?>
<!DOCTYPE svg PUBLIC "-//W3C//DTD SVG 20010904//EN"
 "http://www.w3.org/TR/2001/REC-SVG-20010904/DTD/svg10.dtd">
<svg version="1.0" xmlns="http://www.w3.org/2000/svg"
 width="1560.000000pt" height="722.000000pt" viewBox="0 0 1560.000000 722.000000"
 preserveAspectRatio="xMidYMid meet">

<g transform="translate(0.000000,722.000000) scale(0.100000,-0.100000)"
fill="#000000" stroke="none">
<path d="M6432 7004 c-210 -102 -214 -104 -208 -131 44 -212 76 -440 76 -541
0 -108 1 -114 25 -138 14 -14 55 -69 90 -122 59 -88 63 -97 49 -113 -23 -26
-11 -51 72 -142 107 -119 105 -111 52 -204 -25 -43 -48 -87 -51 -98 -23 -76
-70 -593 -86 -943 l-18 -393 -45 -47 c-226 -236 -430 -470 -529 -608 -127
-176 -139 -198 -139 -253 0 -30 -6 -42 -25 -55 -15 -10 -25 -26 -25 -41 0 -20
-6 -25 -35 -31 -19 -3 -39 -11 -44 -18 -9 -11 49 -321 66 -349 4 -7 47 -69 95
-139 l89 -128 79 0 c70 0 81 -2 94 -22 9 -12 16 -38 16 -58 1 -42 20 -70 48
-70 12 0 23 -8 27 -20 3 -11 15 -20 25 -20 14 0 20 -10 25 -40 4 -22 11 -40
17 -40 5 0 8 -26 7 -60 -2 -46 2 -64 16 -80 10 -11 25 -18 33 -15 10 3 12 0 8
-10 -3 -8 -2 -15 2 -15 4 0 6 -18 4 -40 -3 -33 -1 -40 13 -40 13 0 15 -3 7
-12 -12 -15 -7 -85 7 -102 6 -7 4 -18 -5 -30 -14 -20 -14 -20 -15 0 -1 10 -5
-21 -9 -71 -5 -67 -4 -103 7 -139 8 -26 12 -55 9 -63 -3 -8 3 -31 13 -51 12
-23 17 -48 14 -65 -3 -16 -1 -27 6 -27 6 0 11 -7 11 -15 0 -9 6 -12 15 -9 12
5 15 -2 15 -29 0 -31 5 -38 33 -52 18 -8 41 -29 51 -46 10 -17 32 -39 48 -49
l30 -18 -39 -6 c-21 -4 -52 -2 -67 4 -16 6 -52 10 -81 9 -29 -1 -57 1 -63 5
-6 3 -26 -1 -45 -10 -33 -16 -40 -16 -101 0 -120 30 -216 18 -216 -28 0 -7
-13 -25 -30 -41 -35 -34 -54 -81 -37 -92 7 -5 29 -29 50 -56 21 -26 52 -54 68
-62 21 -11 29 -23 29 -41 0 -15 12 -38 28 -54 15 -15 52 -53 82 -84 44 -45 61
-56 87 -56 18 0 32 -3 30 -8 -5 -15 44 -52 68 -52 26 0 33 -18 14 -37 -15 -15
-7 -66 11 -70 12 -4 12 -3 2 5 -16 11 -12 64 4 69 6 2 19 -16 29 -39 62 -146
74 -177 85 -217 6 -24 25 -58 41 -74 24 -24 29 -35 24 -58 -4 -16 -10 -31 -15
-34 -20 -13 4 -35 36 -35 19 0 45 -7 59 -16 30 -20 91 -9 119 21 12 13 40 26
63 30 24 4 45 11 49 16 3 5 12 9 21 9 24 0 53 30 46 48 -5 10 -3 13 6 8 7 -5
18 0 26 10 14 18 14 18 15 1 0 -10 7 -20 15 -23 8 -4 15 -15 15 -25 0 -10 6
-19 13 -19 7 0 24 -14 39 -30 24 -27 29 -29 53 -18 14 6 24 17 21 24 -4 11 23
19 84 26 8 0 21 10 28 20 7 10 17 16 22 13 4 -3 10 3 12 13 3 11 23 23 49 31
50 15 88 31 106 44 7 5 41 11 75 12 125 7 313 27 328 34 8 5 19 22 23 38 6 20
21 36 42 46 18 9 41 28 52 42 10 15 30 42 46 60 15 18 27 37 27 43 0 6 9 17
20 25 20 14 20 15 -14 45 -19 17 -42 35 -51 40 -15 8 -14 12 8 36 24 26 30 27
139 31 145 4 268 16 268 25 0 16 49 27 105 23 77 -6 108 6 129 51 10 20 23 36
29 35 25 -3 37 2 37 15 0 8 16 16 40 20 22 3 40 10 40 15 0 5 16 25 35 44 19
19 35 42 35 52 0 9 4 14 9 11 5 -4 7 3 4 14 -4 13 0 20 9 20 8 0 27 18 44 40
21 28 36 40 55 40 28 0 49 19 70 65 11 22 24 32 57 40 24 5 42 12 41 15 -1 3
6 22 16 44 15 30 16 42 7 57 -16 26 -15 54 3 69 8 7 15 25 15 40 0 31 17 49
45 49 41 -1 142 21 193 41 50 19 56 19 111 5 99 -25 103 -24 129 47 23 67 29
118 12 118 -5 0 -10 11 -10 25 0 21 -5 25 -30 25 -33 0 -34 1 -95 53 l-39 35
18 78 c10 44 20 87 23 97 4 16 0 17 -31 12 -34 -7 -36 -6 -36 21 0 28 -15 84
-31 116 -5 11 -3 27 6 45 24 46 19 57 -50 91 -46 22 -65 28 -65 18 0 -19 -19
-32 -57 -39 -27 -5 -34 -2 -51 25 -18 28 -19 35 -7 69 19 52 55 99 77 99 16 0
72 53 91 86 5 9 3 24 -7 39 -9 13 -16 34 -16 47 0 12 -8 31 -19 42 -42 47 -27
110 33 137 11 5 35 18 51 29 17 11 37 23 46 26 20 7 37 42 31 66 -2 9 -13 18
-25 20 -19 3 -21 8 -19 44 2 26 -2 47 -11 56 -21 21 -10 33 53 53 70 22 72 24
61 63 -8 27 -7 34 9 42 10 5 20 20 22 32 2 13 17 32 35 43 18 11 32 27 33 36
0 9 6 22 13 28 22 18 20 85 -4 115 l-20 26 43 39 c39 37 45 39 88 34 26 -3 70
1 103 10 56 15 112 13 205 -8 l22 -5 0 844 0 844 -342 185 c-189 102 -468 253
-621 336 -153 83 -282 149 -288 145 -5 -3 -8 0 -7 8 2 8 -6 13 -19 12 -12 0
-20 3 -17 7 7 12 -34 31 -48 23 -6 -4 -8 -3 -5 3 8 12 -81 56 -95 47 -7 -4 -8
-2 -4 4 8 14 -150 96 -166 86 -7 -4 -8 -3 -4 4 8 14 -130 86 -146 76 -7 -4 -8
-3 -4 4 8 14 -150 96 -166 86 -7 -4 -8 -3 -4 4 8 14 -150 96 -166 86 -6 -4 -8
-3 -5 3 3 5 -152 91 -351 193 -196 100 -481 247 -633 326 -152 79 -278 144
-280 143 -2 0 -100 -47 -217 -105z m840 -250 c344 -182 618 -333 618 -340 0
-8 -11 -21 -24 -29 -35 -23 -56 -75 -56 -138 0 -52 -3 -60 -50 -116 -30 -36
-59 -61 -70 -61 -10 0 -22 -4 -25 -10 -3 -5 -16 -10 -29 -10 -62 0 -114 -31
-170 -100 -50 -61 -56 -74 -56 -114 0 -34 4 -46 15 -46 16 0 28 -39 45 -157
11 -73 11 -86 -4 -108 -9 -14 -20 -25 -24 -25 -4 0 -20 19 -36 43 -17 23 -36
46 -43 50 -7 5 -26 34 -42 65 -29 57 -29 58 -10 81 24 29 24 32 -5 53 -36 26
-60 12 -119 -66 -30 -39 -77 -100 -105 -136 -50 -65 -50 -65 -105 -295 l-56
-230 -216 -445 c-120 -245 -224 -460 -232 -479 -13 -31 -16 -33 -31 -18 -14
15 -14 18 0 34 13 15 19 82 32 388 17 365 27 496 67 810 19 159 20 161 69 247
28 49 50 93 50 99 0 13 -88 118 -142 170 -41 39 -45 54 -24 85 14 19 9 29 -58
130 -40 60 -80 115 -89 123 -14 11 -17 33 -17 112 0 72 -11 163 -41 330 -23
127 -39 232 -37 235 5 5 391 193 398 194 2 0 282 -147 622 -326z m778 -379 c0
-3 -18 4 -40 15 -22 11 -40 23 -40 25 0 3 18 -4 40 -15 22 -11 40 -23 40 -25z
m263 -172 c216 -113 397 -211 404 -217 8 -8 -13 -63 -86 -221 l-98 -210 -206
-3 -207 -2 0 -149 c0 -81 -3 -216 -7 -299 l-6 -152 -59 0 c-38 0 -58 -4 -56
-11 2 -6 57 -71 123 -144 l120 -134 151 0 c127 -1 153 -4 158 -16 7 -19 -30
-443 -44 -506 -10 -41 -7 -54 29 -155 21 -60 57 -148 80 -196 l40 -88 -46 -35
c-26 -20 -56 -38 -67 -40 -180 -42 -204 -44 -323 -22 l-113 21 -31 -30 c-17
-16 -51 -58 -77 -94 -57 -81 -133 -167 -179 -202 -49 -38 -185 -68 -305 -68
-89 0 -96 2 -134 30 -34 24 -47 45 -80 127 -34 85 -51 110 -135 208 l-96 110
-292 189 c-160 103 -294 192 -297 197 -3 5 99 224 227 486 l232 478 56 232 56
233 105 135 c59 76 112 135 121 135 9 0 22 -7 29 -15 10 -13 9 -19 -5 -35 -18
-20 -18 -22 6 -72 13 -29 40 -71 59 -93 19 -22 45 -54 57 -70 l21 -30 26 24
c31 29 33 66 12 186 -16 90 -24 115 -37 115 -5 0 -9 18 -9 41 0 84 137 211
207 193 11 -3 25 2 32 10 8 9 21 16 31 16 10 0 41 26 69 59 47 54 51 63 52
112 1 30 4 65 8 78 6 24 69 99 84 100 5 1 185 -92 400 -206z m-93 82 c0 -3
-18 4 -40 15 -22 11 -40 23 -40 25 0 3 18 -4 40 -15 22 -11 40 -23 40 -25z
m170 -91 c0 -2 -13 2 -30 11 -16 9 -30 18 -30 21 0 2 14 -2 30 -11 17 -9 30
-18 30 -21z m150 -80 c0 -2 -9 0 -20 6 -11 6 -20 13 -20 16 0 2 9 0 20 -6 11
-6 20 -13 20 -16z m485 -287 l270 -143 7 -730 c4 -474 3 -733 -4 -741 -5 -7
-33 -19 -61 -27 -66 -19 -89 -36 -128 -92 l-31 -46 21 -100 c12 -54 28 -112
36 -128 20 -39 19 -46 -7 -55 -30 -9 -177 -25 -254 -28 -65 -2 -94 -17 -94
-49 0 -14 -19 -27 -72 -52 -62 -28 -78 -31 -102 -23 l-30 10 34 29 c19 15 40
28 47 28 7 0 13 1 13 3 0 2 -23 54 -50 116 -28 62 -66 154 -84 204 -31 88 -32
94 -20 152 17 84 48 467 40 498 l-6 26 -148 -6 -148 -6 -123 134 -124 134 62
3 61 3 0 294 0 295 63 1 c34 1 127 4 206 8 l144 6 63 135 c35 74 80 170 100
213 20 42 39 77 42 77 4 0 129 -65 277 -143z m630 -334 l335 -177 0 -613 0
-613 -37 -1 c-21 -1 -30 -3 -20 -6 12 -3 17 -16 19 -46 l1 -42 4 43 c3 28 9
42 19 42 12 0 14 -33 14 -206 0 -180 -2 -205 -15 -200 -39 14 -144 18 -181 5
-21 -7 -67 -12 -102 -10 -60 2 -65 0 -107 -36 -24 -21 -44 -46 -45 -55 0 -10
-2 -18 -5 -18 -12 0 -217 154 -222 166 -3 8 -36 23 -74 34 -61 19 -71 25 -88
58 -25 48 -55 203 -47 237 10 41 79 102 128 115 24 6 54 16 67 23 l23 11 -3
733 c-2 403 -3 733 -2 733 2 0 153 -80 338 -177z m-3219 -1388 c3 -8 139 -101
302 -206 164 -106 300 -195 305 -199 4 -3 -55 -85 -130 -182 -115 -145 -145
-192 -183 -276 -41 -94 -45 -100 -57 -79 -15 27 -17 17 -2 -15 8 -19 4 -37
-24 -98 -33 -73 -36 -76 -91 -99 -53 -22 -56 -25 -56 -58 0 -52 14 -70 55 -71
49 -2 55 -7 45 -42 -6 -21 -4 -41 4 -63 9 -20 12 -54 9 -89 -5 -53 -7 -58 -30
-58 -47 0 -121 40 -137 75 -14 30 -14 35 1 65 15 31 15 34 -1 45 -9 7 -16 18
-16 26 0 29 -16 42 -37 30 -17 -8 -24 -6 -42 13 -19 20 -21 28 -12 45 9 17 8
22 -9 31 -17 9 -27 4 -71 -40 -27 -27 -56 -50 -64 -50 -8 0 -15 -6 -15 -14 0
-26 -33 -28 -52 -4 -9 13 -23 23 -30 23 -7 0 -13 9 -13 19 0 11 -8 20 -18 22
-27 4 -32 11 -18 28 10 12 7 23 -19 60 -31 46 -75 69 -89 47 -10 -15 -111 78
-111 102 0 11 -8 17 -24 17 -14 0 -31 7 -40 15 -8 8 -26 15 -39 15 -39 0 -42
43 -5 65 25 14 28 21 23 48 -9 48 13 91 134 257 103 143 518 610 542 610 5 0
12 -7 15 -15z m2804 -361 c30 -9 60 -24 66 -33 16 -22 237 -181 253 -181 16 0
14 -75 -3 -90 -8 -6 -13 -17 -11 -23 2 -7 -14 -24 -35 -39 -24 -16 -40 -36
-40 -47 0 -11 -9 -22 -19 -26 -17 -5 -18 -10 -10 -38 5 -17 9 -35 9 -38 0 -3
-27 -14 -60 -24 -49 -15 -61 -23 -69 -47 -8 -23 -7 -30 5 -35 10 -4 15 -17 14
-42 -3 -57 -1 -61 26 -71 14 -6 24 -15 22 -22 -4 -11 -76 -56 -124 -77 -12 -5
-24 -17 -27 -25 -5 -14 -10 -14 -26 -4 -10 6 -17 17 -15 23 5 13 -159 68 -234
79 -41 6 -43 5 -53 -22 -14 -42 -51 -56 -81 -33 -13 11 -40 26 -60 34 -27 11
-43 28 -61 64 -37 72 -72 88 -182 86 l-90 -2 -47 -52 -48 -53 0 281 0 281 73
16 c112 26 152 29 189 17 32 -11 43 -8 117 25 67 31 81 41 81 60 0 29 10 31
155 40 66 4 136 13 155 20 47 17 67 17 130 -2z m-2083 -169 c77 -89 95 -118
127 -200 32 -79 44 -100 77 -123 46 -32 48 -42 12 -43 -17 -1 -21 -3 -10 -6
22 -6 21 -11 -3 -51 -11 -18 -20 -38 -20 -46 0 -30 -130 -291 -149 -301 -28
-13 -31 -26 -37 -125 -7 -104 -19 -133 -51 -125 -13 3 -37 -2 -54 -11 -17 -8
-37 -13 -45 -10 -8 3 -49 -1 -92 -9 -121 -22 -252 -24 -252 -3 0 6 -8 20 -17
31 -13 14 -18 37 -19 86 -1 36 -5 85 -9 109 -7 37 -5 42 11 42 36 0 -20 41
-64 47 -30 4 -42 11 -46 27 -12 45 -7 53 50 76 56 23 56 24 99 117 46 97 61
109 89 71 13 -19 15 -19 7 -3 -5 11 -8 31 -6 45 1 14 0 17 -2 8 -2 -10 -11
-18 -19 -18 -16 0 -18 13 -5 38 5 9 21 46 37 82 18 44 70 120 158 232 72 92
134 167 137 167 4 1 47 -46 96 -104z m1072 10 c46 -8 85 -15 87 -15 2 0 4
-148 4 -328 l0 -329 50 -27 c44 -24 64 -46 42 -46 -4 0 -6 -18 -4 -41 4 -38 3
-40 -19 -37 -27 3 -38 40 -19 64 9 10 9 14 1 14 -15 0 -26 -50 -14 -69 6 -9
22 -16 37 -16 14 -1 30 -5 35 -10 5 -6 12 -55 15 -110 9 -125 3 -134 -79 -142
-33 -3 -76 -1 -97 5 -25 7 -39 7 -47 -1 -6 -6 -29 -10 -51 -8 -22 1 -40 -2
-40 -7 0 -17 -56 -68 -70 -64 -8 3 -11 -1 -7 -10 9 -24 -62 -52 -110 -44 -21
4 -90 9 -154 12 l-116 6 -74 -42 c-41 -23 -81 -48 -89 -55 -8 -7 -34 -16 -57
-20 -34 -5 -55 -19 -106 -68 -55 -54 -65 -61 -85 -52 -12 5 -22 14 -22 19 0 5
-8 18 -17 28 -12 13 -16 33 -14 64 2 42 1 45 -17 40 -14 -5 -26 1 -41 20 -12
15 -21 33 -21 41 0 7 -7 16 -15 19 -26 10 -47 67 -36 97 6 15 14 27 19 27 5 0
23 20 40 44 29 40 32 52 31 108 -2 88 8 132 33 143 13 7 45 65 90 163 58 124
75 152 92 153 17 1 17 2 4 6 -22 6 -22 3 4 58 l22 45 104 0 c118 0 229 21 287
55 43 25 126 115 189 205 63 88 107 130 130 125 12 -3 59 -11 105 -20z m-2479
-471 c0 -7 14 -14 33 -16 23 -2 33 -8 35 -23 1 -11 17 -29 33 -40 17 -11 41
-35 53 -53 20 -28 25 -30 36 -17 22 26 48 17 77 -26 25 -37 26 -42 11 -53 -15
-11 -13 -16 21 -49 21 -20 43 -37 50 -37 6 0 11 -3 11 -7 0 -5 7 -16 14 -26
13 -17 16 -17 45 -2 17 8 31 20 31 25 0 6 6 10 13 10 7 0 23 13 35 30 40 54
99 80 73 32 -8 -16 -4 -24 22 -50 23 -22 36 -29 47 -22 18 11 31 3 24 -15 -4
-8 1 -17 9 -21 15 -5 13 -38 -4 -60 -5 -6 0 -27 11 -49 24 -47 25 -55 5 -55
-13 0 -14 -4 -5 -20 8 -15 8 -20 -1 -20 -8 0 -10 -15 -6 -49 3 -27 1 -53 -4
-58 -16 -16 -64 -1 -98 29 -33 30 -104 48 -115 29 -4 -6 -32 -11 -63 -11 -40
0 -59 -5 -68 -16 -10 -15 -14 -12 -34 20 l-23 36 -81 0 -82 1 -91 132 -90 132
-28 135 c-15 74 -30 145 -33 156 -4 17 2 24 24 32 41 14 113 12 113 -4z m2886
-30 c25 -12 41 -29 54 -58 20 -46 43 -70 80 -81 13 -4 37 -17 52 -28 24 -18
30 -18 58 -7 18 7 33 22 36 36 5 19 13 24 40 24 44 0 224 -58 224 -72 0 -6 8
-17 17 -23 17 -12 17 -14 -2 -36 -14 -16 -16 -23 -7 -26 6 -3 12 -13 12 -23 0
-10 11 -32 26 -49 14 -17 24 -36 22 -43 -1 -7 3 -23 10 -36 11 -19 10 -27 -13
-56 -14 -19 -37 -37 -51 -40 -24 -6 -73 -52 -74 -68 0 -4 -12 -33 -26 -64 -25
-54 -27 -56 -57 -50 -41 8 -52 20 -39 43 8 13 7 22 -5 36 -13 13 -14 22 -5 41
6 13 8 33 5 45 -6 24 -5 24 -35 12 -33 -12 -146 4 -168 24 -17 16 -19 15 -31
-7 -16 -31 -28 -38 -67 -38 -42 0 -99 -38 -94 -63 2 -10 16 -20 33 -24 16 -3
39 -17 50 -31 18 -24 19 -28 5 -38 -18 -13 -21 -50 -6 -59 6 -4 8 -15 5 -25
-4 -13 2 -21 26 -29 18 -6 41 -11 53 -11 12 0 28 -5 36 -10 12 -8 11 -12 -7
-32 -22 -23 -22 -24 -5 -70 l16 -47 -39 -81 c-21 -44 -41 -80 -43 -80 -3 0
-69 34 -147 75 -133 70 -147 75 -204 75 -48 0 -61 -3 -61 -15 0 -8 -7 -15 -15
-15 -44 0 -15 147 41 201 26 25 32 37 27 59 -4 21 1 33 21 52 30 28 27 48 -10
73 -33 22 -30 35 9 35 18 0 43 7 56 16 23 17 24 20 19 131 -3 65 -10 119 -17
126 -6 6 -11 36 -11 67 l0 57 -48 22 c-47 22 -48 24 -43 56 4 20 26 57 55 91
47 54 51 56 88 51 21 -3 41 -1 44 5 8 13 63 4 110 -18z m-2133 -506 c12 -7 44
-15 72 -18 42 -4 52 -9 63 -32 7 -16 23 -29 40 -32 34 -8 158 0 237 15 33 6
72 10 88 10 15 -1 40 5 55 13 37 19 60 6 33 -18 -11 -10 -25 -34 -32 -53 -10
-32 -8 -37 25 -78 20 -24 36 -47 36 -52 0 -5 11 -20 24 -32 13 -12 27 -36 30
-53 3 -16 17 -43 31 -60 14 -16 25 -36 25 -44 0 -8 8 -14 18 -14 34 0 50 -22
41 -55 -6 -21 -26 -41 -69 -68 -54 -35 -64 -38 -102 -32 -24 4 -48 11 -54 16
-7 5 -30 3 -57 -5 l-45 -14 -33 34 c-28 29 -40 34 -79 34 -43 0 -48 3 -65 34
-20 36 -36 43 -130 53 -35 3 -55 11 -67 26 -14 18 -19 19 -32 8 -9 -8 -16 -9
-16 -3 0 21 -32 42 -62 42 -17 0 -39 7 -49 16 -16 14 -22 13 -71 -12 -33 -18
-70 -28 -100 -29 -45 -2 -48 0 -48 24 0 14 -7 39 -15 55 -8 15 -15 41 -15 57
0 22 -5 29 -19 29 -11 0 -21 7 -23 16 -2 9 -19 22 -38 28 -27 9 -36 17 -38 39
-2 19 1 27 12 27 9 0 16 7 16 15 0 12 13 15 59 15 33 0 63 5 67 11 9 16 53 2
94 -31 20 -15 52 -31 71 -35 48 -9 64 11 56 69 -5 35 -3 45 9 50 13 5 14 9 5
20 -9 11 -9 15 1 19 21 9 28 8 51 -5z m2380 -30 c15 1 27 -3 27 -8 0 -5 14 -5
32 1 18 5 34 9 36 9 1 0 -1 -18 -4 -40 -4 -26 -2 -45 6 -55 10 -12 10 -18 0
-31 -11 -12 -11 -18 2 -30 21 -22 84 -34 98 -20 8 8 14 7 20 -5 30 -52 43 -59
90 -48 25 7 51 18 59 25 12 11 21 9 53 -7 42 -21 46 -33 22 -67 -14 -21 -14
-25 -1 -40 18 -21 29 -72 30 -133 l0 -47 31 9 c17 5 32 9 33 9 0 0 -5 -26 -13
-57 -21 -92 -18 -117 19 -152 73 -71 76 -74 102 -69 21 4 25 1 25 -18 0 -12 5
-24 12 -26 8 -3 4 -24 -12 -70 l-24 -65 -77 17 c-45 10 -83 14 -91 9 -32 -21
-44 -7 -97 122 -30 72 -61 137 -68 145 -8 8 -27 14 -42 14 -15 0 -32 5 -38 11
-8 8 -57 2 -175 -20 -91 -17 -168 -31 -171 -31 -4 0 -7 8 -7 18 0 10 -5 23
-11 29 -7 7 0 31 25 82 38 74 44 113 24 156 -10 22 -8 28 10 48 12 13 22 28
22 34 0 14 -45 32 -90 35 -25 2 -35 8 -35 20 0 9 -4 20 -8 24 -12 13 -8 42 8
48 31 12 -19 81 -66 91 -16 4 -29 10 -29 15 0 18 59 50 92 50 19 0 43 7 54 15
14 11 30 13 59 8 22 -4 52 -6 68 -5z m-604 -68 c43 -12 111 -59 111 -76 0 -7
-6 -17 -14 -21 -20 -12 -37 -50 -30 -68 4 -10 -4 -28 -24 -48 -18 -20 -39 -60
-53 -104 -26 -82 -33 -86 -122 -59 l-45 14 -34 -35 c-25 -25 -32 -41 -30 -63
4 -36 -34 -107 -62 -116 -12 -4 -24 -1 -31 10 -7 9 -26 16 -47 16 -35 0 -36
-1 -42 -50 -12 -90 12 -131 94 -164 24 -9 63 -28 87 -41 24 -14 47 -24 51 -23
11 3 82 -23 82 -30 1 -4 3 -32 5 -62 2 -30 1 -71 -3 -90 -7 -33 -10 -35 -50
-36 -45 -1 -92 -26 -92 -49 0 -24 -34 -84 -47 -85 -7 0 -13 -4 -13 -10 0 -5
-7 -10 -15 -10 -8 0 -15 -8 -15 -17 -1 -36 -25 -52 -81 -55 -47 -3 -54 -6 -57
-25 -4 -27 -3 -27 -34 -11 -13 7 -22 20 -20 29 6 31 -91 119 -131 119 -7 0
-23 9 -36 21 -22 20 -38 27 -73 28 -10 1 -33 14 -51 31 -34 29 -35 29 -98 19
-37 -7 -73 -20 -86 -31 -24 -23 -73 -18 -73 6 0 8 -10 16 -22 18 -19 2 -23 10
-26 43 -1 22 -7 49 -12 60 -14 31 -21 109 -20 240 1 144 7 195 25 195 32 0
155 86 155 109 0 9 6 28 14 42 7 14 16 37 20 52 9 37 90 97 131 97 19 0 39 8
50 20 10 11 24 20 31 20 7 0 19 6 26 13 7 7 33 25 59 39 44 26 49 26 162 21
64 -3 117 -10 117 -14 0 -18 80 -9 117 13 42 24 113 92 113 108 0 6 11 10 25
10 14 0 25 -5 25 -11 0 -7 9 -5 23 4 27 19 25 19 66 7z m-1082 -227 c-3 -10
-5 -4 -5 12 0 17 2 24 5 18 2 -7 2 -21 0 -30z m-763 -58 c11 -8 34 -15 52 -15
26 0 33 -5 38 -25 6 -24 24 -29 38 -10 4 5 10 2 14 -8 5 -13 18 -17 54 -17 59
0 132 -31 150 -65 11 -21 20 -25 59 -25 38 0 51 -5 82 -36 35 -34 38 -35 78
-24 28 7 47 8 60 0 11 -5 29 -10 40 -10 22 0 22 -2 1 -101 -4 -20 -4 -43 0
-50 4 -8 4 -45 0 -84 -5 -45 -4 -77 3 -90 6 -11 12 -40 13 -65 8 -124 26 -180
56 -180 5 0 16 -7 24 -15 8 -8 20 -18 27 -22 23 -15 98 -136 104 -167 3 -17
16 -43 30 -57 l23 -26 -25 -11 c-37 -17 -43 -16 -85 18 -21 17 -50 30 -64 30
-15 0 -37 10 -50 22 -13 13 -37 24 -55 25 -18 0 -40 8 -50 17 -10 9 -21 13
-24 9 -8 -8 -77 26 -94 47 -7 8 -11 27 -9 43 4 25 2 27 -30 27 -24 0 -34 5
-34 15 0 8 8 16 18 16 16 1 16 2 0 6 -26 6 -22 31 5 36 19 4 18 4 -5 6 -27 1
-28 -1 -28 -44 0 -34 4 -45 16 -45 8 0 12 -4 9 -10 -3 -5 -33 -10 -66 -10
l-61 0 7 31 c6 25 4 31 -14 36 -12 3 -21 12 -21 19 0 17 27 18 33 2 4 -10 6
-10 6 0 1 8 -8 16 -20 19 -19 5 -20 11 -14 63 6 48 4 58 -10 64 -9 3 -20 4
-23 2 -20 -11 -124 15 -155 38 -19 14 -41 26 -50 26 -9 0 -19 9 -22 20 -3 11
-14 24 -24 30 -10 5 -21 23 -24 40 -6 27 -10 30 -43 30 -26 0 -48 -9 -77 -32
l-40 -32 6 56 c8 63 15 88 27 88 5 0 11 -10 13 -22 2 -13 5 1 6 31 1 38 -4 60
-16 73 -14 15 -15 24 -5 55 9 30 9 42 -3 60 -21 31 -19 40 14 59 26 15 29 22
24 48 -3 17 -10 37 -16 43 -7 10 5 19 44 38 63 29 59 28 83 10z m-152 -48 c23
-18 28 -70 7 -75 -9 -1 -20 8 -27 23 -7 16 -19 25 -29 23 -12 -2 -19 4 -21 20
-3 18 1 22 25 22 15 0 36 -6 45 -13z m1913 -68 c33 -5 65 -16 71 -24 14 -19
54 -19 54 -1 0 10 16 15 53 18 46 4 61 0 132 -37 44 -24 117 -62 163 -85 69
-35 82 -46 82 -66 0 -20 4 -23 23 -19 93 22 329 61 332 54 3 -4 22 -10 44 -14
l38 -6 57 -132 c31 -73 56 -135 56 -139 0 -13 -43 -31 -85 -35 -22 -2 -57 -5
-77 -7 -48 -4 -68 -21 -68 -57 0 -19 -5 -29 -15 -29 -13 0 -15 -13 -13 -74 3
-82 -14 -116 -58 -116 -21 0 -64 -45 -64 -67 0 -20 -36 -42 -58 -36 -12 3 -22
1 -22 -3 0 -11 -64 -84 -74 -84 -13 0 -36 -28 -36 -44 0 -9 -4 -16 -10 -16 -5
0 -10 -7 -10 -15 0 -21 -68 -85 -90 -85 -9 0 -23 -7 -30 -15 -7 -9 -20 -15
-29 -13 -9 2 -23 -12 -36 -36 -24 -46 -53 -57 -116 -46 -31 6 -54 4 -78 -6
-19 -8 -35 -13 -36 -12 -2 2 -28 82 -60 178 -31 96 -63 187 -71 202 -8 15 -10
29 -5 32 15 9 23 76 11 91 -8 9 -6 35 8 97 11 52 15 96 11 118 -4 19 -3 40 2
46 13 16 -23 50 -68 64 -21 6 -60 22 -88 35 -27 13 -66 30 -85 39 -74 32 -84
48 -81 144 1 40 3 42 30 42 21 0 32 -6 36 -20 7 -23 13 -24 48 -11 33 13 80
98 72 130 -7 29 40 85 65 75 8 -3 42 -10 75 -15z m-1895 -254 c0 -8 -4 -15
-10 -15 -5 0 -7 7 -4 15 4 8 8 15 10 15 2 0 4 -7 4 -15z m100 -135 c0 -11 9
-29 19 -39 11 -11 24 -29 31 -40 6 -12 17 -21 25 -21 8 0 34 -13 57 -30 34
-24 57 -31 112 -35 39 -3 71 -7 72 -8 1 -1 -2 -24 -6 -52 -13 -78 -12 -145 3
-145 7 0 20 -18 30 -40 17 -39 17 -40 -10 -92 -14 -29 -44 -68 -65 -87 -35
-31 -41 -33 -63 -21 -33 18 -53 7 -74 -42 -10 -24 -26 -50 -35 -58 -10 -7 -31
-33 -48 -57 l-30 -44 -56 32 c-68 38 -73 45 -67 84 4 24 -1 38 -29 70 -28 32
-37 38 -47 28 -7 -7 -25 -13 -40 -13 -24 0 -26 3 -25 37 1 33 5 40 36 53 34
15 108 18 129 6 5 -4 12 -2 16 3 3 6 20 5 44 -4 43 -15 125 -4 150 20 11 11 7
17 -27 34 -55 28 -102 88 -95 124 6 32 -11 57 -41 57 -32 1 -56 24 -56 54 0
15 -7 37 -15 50 -9 13 -15 36 -14 52 2 16 -1 40 -6 54 -6 20 -2 29 31 57 46
38 94 45 94 13z m1760 -280 c0 -3 -4 -20 -10 -39 -8 -28 -6 -36 7 -46 14 -11
15 -16 4 -28 -21 -26 -15 -78 18 -167 l32 -84 -20 -48 c-11 -26 -18 -48 -15
-48 3 0 12 17 21 37 l15 37 34 -98 c19 -55 34 -102 34 -107 0 -4 -10 -7 -22
-7 -117 -1 -326 -15 -340 -23 -41 -22 -70 -61 -63 -86 3 -15 11 -23 19 -20 21
8 58 -36 49 -59 -8 -23 -63 -96 -80 -107 -7 -4 -13 -13 -13 -20 0 -7 -17 -21
-37 -32 -23 -12 -40 -30 -43 -45 -5 -21 -14 -26 -50 -32 -25 -3 -59 -7 -76 -7
-32 -1 -32 -1 -39 63 -3 35 -13 72 -20 83 -17 21 -20 69 -5 78 6 3 9 25 8 48
l-1 42 -6 -45 c-9 -64 -34 -61 -43 5 -4 28 -10 65 -14 83 -5 28 -3 34 14 39
18 4 68 71 60 78 -2 1 -26 7 -53 13 -83 18 -104 29 -122 67 -12 24 -23 35 -39
35 -27 0 -57 44 -49 71 4 10 24 28 46 40 41 20 42 32 8 56 -9 7 -19 26 -23 44
-3 17 -24 58 -46 91 -22 33 -40 66 -40 73 0 25 49 53 107 60 53 6 59 5 79 -18
12 -14 25 -23 28 -20 3 4 6 1 6 -5 0 -7 9 -12 21 -12 29 0 169 -68 202 -98 19
-18 27 -36 27 -59 0 -18 4 -33 9 -33 5 0 22 -3 38 -6 27 -5 31 -3 37 20 6 24
11 26 57 26 52 0 79 15 79 44 0 9 6 16 13 16 14 0 47 35 47 50 0 6 7 10 15 10
8 0 15 9 15 20 0 20 18 60 32 70 8 7 88 7 88 0z m-1762 -42 c5 -39 -23 -37
-37 3 -10 28 -9 30 12 27 16 -2 23 -11 25 -30z m352 -24 c0 -17 -22 -14 -28 4
-2 7 3 12 12 12 9 0 16 -7 16 -16z m160 -55 c0 -28 18 -59 34 -59 8 0 19 -7
26 -15 7 -8 23 -15 37 -15 13 0 31 -7 39 -15 9 -8 27 -15 42 -15 15 0 41 -9
57 -20 17 -11 37 -20 45 -20 34 0 125 -63 115 -80 -5 -8 -10 -8 -21 1 -9 7
-24 8 -41 3 -43 -12 -83 -11 -83 2 0 7 10 15 23 17 20 4 19 4 -4 6 -22 1 -27
-4 -30 -26 -2 -16 -2 -46 1 -68 4 -36 2 -43 -28 -67 l-32 -26 31 -25 31 -24
-23 -17 c-31 -21 -155 -22 -183 -1 -11 8 -39 15 -63 15 -30 0 -43 4 -43 14 0
7 -7 19 -15 26 -12 10 -23 6 -61 -25 -39 -32 -49 -37 -65 -27 -25 16 -39 15
-61 -4 -22 -21 -153 -35 -185 -21 -44 20 -25 83 48 162 15 17 35 47 43 67 20
47 33 54 57 32 17 -15 24 -16 39 -6 37 23 50 15 52 -30 l1 -43 4 42 c3 29 9
43 21 46 9 3 1 5 -18 6 l-35 2 32 27 c33 29 73 109 73 148 0 22 4 24 49 24 31
0 53 5 61 15 17 21 30 19 30 -6z m-825 -110 c49 -14 55 -22 55 -76 0 -42 1
-43 33 -43 18 0 39 6 46 13 19 18 61 -38 61 -83 0 -47 6 -53 75 -92 50 -28 60
-39 63 -63 2 -20 -4 -38 -18 -53 -11 -12 -16 -22 -9 -22 17 0 4 -70 -22 -120
l-21 -40 -25 25 c-14 14 -37 25 -50 25 -15 0 -34 12 -50 30 -13 17 -32 30 -41
30 -10 0 -30 9 -47 20 -50 33 -145 132 -145 152 0 25 -29 68 -45 68 -16 0
-105 100 -105 117 0 7 16 33 35 59 19 25 35 50 35 55 0 13 127 11 175 -2z
m1221 -180 c17 -28 31 -39 48 -39 19 0 27 -8 36 -34 8 -26 20 -37 54 -50 25
-9 60 -20 80 -23 34 -5 35 -7 23 -30 -7 -13 -24 -30 -38 -37 -15 -8 -23 -19
-21 -32 1 -10 5 -46 9 -79 3 -35 14 -70 24 -84 11 -13 19 -31 19 -40 0 -10 6
-23 12 -29 7 -7 15 -41 18 -76 l5 -64 -55 -12 c-30 -7 -80 -12 -110 -11 -38 1
-69 -5 -100 -20 -125 -60 -124 -60 -160 10 l-30 61 23 5 c12 3 29 18 38 33 15
26 14 29 -34 99 -49 70 -50 72 -34 97 12 17 17 47 17 94 0 57 4 72 21 88 l21
19 -29 23 -28 23 28 25 c23 20 29 33 29 69 1 41 3 45 27 46 14 0 35 4 46 8 26
11 31 7 61 -40z m-474 -170 c5 -19 24 -48 43 -64 l34 -31 -20 -31 c-11 -17
-31 -34 -44 -37 -14 -4 -25 -11 -25 -16 0 -6 -8 -10 -18 -10 -32 0 -112 -31
-112 -44 0 -16 -42 -14 -48 2 -2 7 -8 12 -14 12 -6 0 -5 -7 3 -16 11 -14 10
-19 -7 -33 -12 -9 -26 -27 -33 -39 -6 -12 -21 -22 -32 -22 -11 0 -33 -7 -48
-15 -27 -13 -30 -13 -51 10 -13 14 -31 25 -40 25 -25 0 -60 29 -60 51 0 11 10
24 23 29 17 7 18 9 5 9 -25 1 -23 11 12 51 16 19 29 42 29 50 0 10 -3 8 -9 -5
-7 -16 -9 -14 -9 15 -1 26 2 31 9 20 7 -11 8 -7 4 15 l-6 30 108 2 c86 1 109
4 116 17 10 18 43 21 53 6 10 -16 19 -12 66 25 24 19 48 33 54 32 5 -2 13 -19
17 -38z m108 -16 c19 -13 45 -18 103 -18 l77 0 0 -58 c0 -44 -5 -65 -20 -84
-11 -14 -20 -29 -20 -32 0 -4 22 -38 50 -75 54 -76 54 -99 0 -119 l-28 -11 34
-68 c19 -37 34 -70 34 -72 0 -13 -44 -44 -55 -40 -7 3 -15 -2 -18 -10 -4 -10
-19 -16 -42 -16 -28 0 -35 -4 -35 -20 0 -11 -3 -20 -8 -20 -10 0 -62 59 -62
71 0 4 -9 13 -20 19 -12 6 -20 21 -20 35 0 30 -9 31 -44 4 -14 -11 -26 -17
-26 -12 0 4 -7 0 -15 -10 -7 -11 -11 -25 -9 -31 5 -13 -48 -37 -111 -51 -16
-3 -39 -15 -51 -26 -11 -11 -35 -24 -53 -29 -26 -7 -34 -6 -44 11 -7 12 -23
19 -43 19 l-31 0 8 43 c4 23 8 45 9 48 0 4 -11 10 -24 13 -16 4 -30 21 -45 55
-11 27 -21 54 -21 59 0 5 -12 35 -26 66 -14 32 -24 59 -22 61 9 9 84 -25 96
-44 18 -26 27 -26 61 -2 17 12 36 18 49 14 17 -4 24 1 31 20 12 32 61 69 83
64 11 -3 20 2 23 14 12 36 35 22 37 -23 l1 -43 4 43 c3 31 8 42 21 42 15 0 15
2 2 10 -11 7 -7 10 17 10 18 0 36 6 40 13 4 7 20 18 36 25 15 6 35 28 44 48
l18 36 -40 34 c-33 28 -37 36 -25 44 23 15 53 12 80 -7z"/>
<path d="M6752 6303 c12 -3 18 -17 21 -46 l4 -42 1 42 c2 30 7 43 20 46 9 3
-1 5 -23 5 -22 0 -32 -2 -23 -5z"/>
<path d="M6823 6265 c0 -27 2 -38 4 -22 2 15 2 37 0 50 -2 12 -4 0 -4 -28z"/>
<path d="M6860 6306 c0 -2 11 -6 25 -8 14 -3 25 -1 25 3 0 5 -11 9 -25 9 -14
0 -25 -2 -25 -4z"/>
<path d="M6940 6265 c0 -43 1 -45 28 -44 23 2 24 2 5 6 -27 5 -31 30 -5 36 16
4 16 5 0 6 -26 2 -22 29 5 34 19 4 18 4 -5 6 -27 1 -28 -1 -28 -44z"/>
<path d="M7018 6303 c6 -2 18 -2 25 0 6 3 1 5 -13 5 -14 0 -19 -2 -12 -5z"/>
<path d="M7082 6303 c12 -3 18 -17 21 -46 l4 -42 1 42 c2 30 7 43 20 46 9 3
-1 5 -23 5 -22 0 -32 -2 -23 -5z"/>
<path d="M7153 6265 c0 -27 2 -38 4 -22 2 15 2 37 0 50 -2 12 -4 0 -4 -28z"/>
<path d="M6880 6270 c-23 -7 -23 -8 -3 -9 12 -1 25 4 28 9 3 6 5 10 3 9 -2 -1
-14 -5 -28 -9z"/>
<path d="M7029 6262 c15 -12 21 -24 16 -32 -5 -9 -4 -11 3 -6 20 12 13 32 -15
45 l-28 12 24 -19z"/>
<path d="M6902 6234 c-7 -8 -8 -14 -3 -14 10 0 25 19 20 25 -2 1 -10 -3 -17
-11z"/>
<path d="M7933 4413 c9 -2 25 -2 35 0 9 3 1 5 -18 5 -19 0 -27 -2 -17 -5z"/>
<path d="M8063 4375 c0 -27 2 -38 4 -22 2 15 2 37 0 50 -2 12 -4 0 -4 -28z"/>
<path d="M8248 4403 c-2 -10 -1 -31 3 -48 6 -26 7 -23 8 18 1 48 -3 61 -11 30z"/>
<path d="M7232 4357 c-2 -47 -1 -48 25 -45 18 2 28 9 29 21 1 12 1 13 -3 2 -2
-8 -13 -15 -23 -15 -15 0 -20 9 -23 43 l-4 42 -1 -48z"/>
<path d="M7272 4386 c7 -8 15 -12 17 -11 5 6 -10 25 -20 25 -5 0 -4 -6 3 -14z"/>
<path d="M7314 4386 c-9 -24 0 -58 19 -70 40 -25 78 45 40 75 -16 13 -17 12
-5 -3 22 -27 11 -63 -18 -63 -20 0 -26 6 -28 29 -2 16 2 32 10 37 10 7 10 9 0
9 -7 0 -15 -6 -18 -14z"/>
<path d="M7413 4355 c0 -27 2 -40 4 -27 5 25 13 28 32 10 10 -11 11 -10 6 5
-4 9 -13 17 -20 17 -8 0 -16 10 -18 23 -2 12 -4 0 -4 -28z"/>
<path d="M7452 4386 c7 -8 15 -12 17 -11 5 6 -10 25 -20 25 -5 0 -4 -6 3 -14z"/>
<path d="M7493 4360 c-1 -25 1 -37 4 -27 6 22 11 22 34 -5 19 -23 19 -23 2 9
-10 17 -21 29 -25 27 -3 -2 -9 6 -11 18 -2 13 -4 3 -4 -22z"/>
<path d="M7572 4388 c-28 -28 -7 -79 33 -77 17 1 16 2 -5 8 -28 8 -39 43 -20
67 15 17 9 19 -8 2z"/>
<path d="M7617 4393 c6 -4 13 -22 16 -38 4 -27 5 -27 3 4 0 21 -7 36 -16 38
-10 3 -11 2 -3 -4z"/>
<path d="M7664 4366 c1 -42 22 -64 50 -53 12 5 16 18 14 49 l-1 43 -4 -43 c-4
-38 -7 -43 -26 -40 -17 2 -23 12 -28 43 l-7 40 2 -39z"/>
<path d="M8200 4356 c0 -8 4 -17 9 -20 5 -4 7 3 4 14 -6 23 -13 26 -13 6z"/>
<path d="M8131 4344 c0 -11 3 -14 6 -6 3 7 2 16 -1 19 -3 4 -6 -2 -5 -13z"/>
<path d="M8361 5093 c1 -27 4 -38 6 -26 2 12 12 24 21 26 15 4 15 5 0 6 -26 2
-22 29 5 34 19 4 18 4 -5 6 -27 1 -28 -1 -27 -46z"/>
<path d="M8430 5095 c0 -27 2 -46 4 -44 8 8 10 78 3 85 -4 4 -7 -14 -7 -41z"/>
<path d="M8490 5104 c0 -20 -4 -33 -10 -29 -6 3 -7 -1 -4 -9 12 -31 24 -15 24
29 0 25 -2 45 -5 45 -3 0 -5 -16 -5 -36z"/>
<path d="M8531 5093 c2 -45 2 -46 8 -13 l6 35 20 -32 c11 -18 23 -33 27 -33 4
0 7 21 7 48 l-2 47 -6 -40 -6 -40 -23 38 c-13 20 -26 37 -28 37 -2 0 -3 -21
-3 -47z"/>
<path d="M8631 5093 c1 -27 4 -38 6 -26 2 12 12 24 21 26 15 4 15 5 0 6 -26 2
-22 29 5 34 19 4 18 4 -5 6 -27 1 -28 -1 -27 -46z"/>
<path d="M8702 5093 l1 -48 4 42 c3 29 9 43 21 46 12 3 11 5 -5 6 -21 1 -23
-3 -21 -46z"/>
<path d="M8793 5095 c0 -27 2 -38 4 -22 2 15 2 37 0 50 -2 12 -4 0 -4 -28z"/>
<path d="M8873 5128 c-19 -25 -24 -43 -6 -22 10 12 25 24 33 27 13 5 12 6 -1
6 -9 1 -21 -5 -26 -11z"/>
<path d="M8962 5105 c-2 -39 11 -65 32 -65 5 0 2 6 -7 13 -9 6 -18 30 -20 52
l-4 40 -1 -40z"/>
<path d="M9023 5105 c0 -22 2 -30 4 -17 2 12 2 30 0 40 -3 9 -5 -1 -4 -23z"/>
<path d="M9051 5093 c1 -27 4 -38 6 -26 2 13 13 24 26 26 l22 4 -22 2 c-13 0
-23 7 -23 15 0 8 10 17 23 19 19 4 18 4 -5 6 -27 1 -28 -1 -27 -46z"/>
<path d="M9127 5133 c-14 -13 -7 -31 18 -47 14 -9 25 -12 25 -7 0 5 -9 13 -20
16 -27 9 -25 33 3 38 20 4 20 4 1 6 -11 0 -24 -2 -27 -6z"/>
<path d="M9192 5133 c12 -3 18 -17 21 -46 l4 -42 1 42 c2 30 7 43 20 46 9 3
-1 5 -23 5 -22 0 -32 -2 -23 -5z"/>
<path d="M8758 5099 c3 -20 0 -35 -9 -41 -12 -8 -11 -9 1 -5 17 4 26 55 12 69
-5 5 -7 -4 -4 -23z"/>
<path d="M8926 5107 c4 -16 1 -33 -6 -42 -8 -10 -9 -15 -1 -15 16 0 24 46 12
67 -9 15 -10 14 -5 -10z"/>
<path d="M8860 5071 c0 -6 4 -13 10 -16 6 -3 7 1 4 9 -7 18 -14 21 -14 7z"/>
<path d="M9291 4043 c1 -27 4 -38 6 -26 2 12 12 24 21 26 15 4 15 5 0 6 -26 2
-22 29 5 34 19 4 18 4 -5 6 -27 1 -28 -1 -27 -46z"/>
<path d="M9362 4045 l1 -50 7 40 c4 22 8 36 9 30 0 -5 12 -23 26 -40 l24 -30
-1 50 -1 50 -7 -40 c-4 -22 -8 -35 -9 -30 0 6 -12 24 -26 40 l-24 30 1 -50z"/>
<path d="M9462 4043 c1 -45 2 -46 5 -9 4 35 5 37 19 20 14 -18 14 -18 4 3 -19
41 -30 36 -28 -14z"/>
<path d="M9521 4057 c-1 -28 -4 -36 -13 -31 -8 5 -7 0 2 -11 14 -17 15 -17 18
8 2 15 1 37 -1 50 -3 13 -5 7 -6 -16z"/>
<path d="M9561 4043 c1 -27 4 -38 6 -26 2 12 12 24 21 26 15 4 15 5 0 6 -26 2
-22 29 5 34 19 4 18 4 -5 6 -27 1 -28 -1 -27 -46z"/>
<path d="M9632 4043 l1 -48 4 42 c3 29 9 43 21 46 12 3 11 5 -5 6 -21 1 -23
-3 -21 -46z"/>
<path d="M9723 4045 c0 -27 2 -38 4 -22 2 15 2 37 0 50 -2 12 -4 0 -4 -28z"/>
<path d="M9791 4043 c1 -27 4 -38 6 -26 2 12 12 24 21 26 15 4 15 5 0 6 -26 2
-22 29 5 34 19 4 18 4 -5 6 -27 1 -28 -1 -27 -46z"/>
<path d="M9866 4081 c-3 -4 6 -6 19 -3 14 2 25 6 25 8 0 8 -39 4 -44 -5z"/>
<path d="M9688 4049 c3 -20 0 -35 -9 -41 -12 -8 -11 -9 1 -5 17 4 26 55 12 69
-5 5 -7 -4 -4 -23z"/>
<path d="M9879 4042 c13 -11 21 -24 17 -31 -4 -6 -2 -11 3 -11 23 0 10 37 -16
49 l-28 12 24 -19z"/>
<path d="M6542 3163 c2 -37 7 -48 21 -49 12 -1 13 -1 2 3 -8 2 -15 13 -15 24
0 28 38 25 43 -3 2 -13 4 -3 4 22 -1 25 -2 37 -5 28 -4 -21 -42 -24 -42 -4 0
8 8 17 18 19 12 3 11 5 -6 6 -21 1 -23 -2 -20 -46z"/>
<path d="M6640 3189 c0 -5 5 -7 10 -4 6 3 10 8 10 11 0 2 -4 4 -10 4 -5 0 -10
-5 -10 -11z"/>
<path d="M6626 3155 c-9 -26 -7 -32 5 -12 6 10 9 21 6 23 -2 3 -7 -2 -11 -11z"/>
<path d="M8816 3375 c-3 -9 -6 -22 -5 -28 0 -7 5 -1 10 12 5 13 8 26 5 28 -2
2 -6 -3 -10 -12z"/>
<path d="M8867 3383 c-4 -3 -7 -11 -7 -17 0 -6 5 -5 12 2 6 6 9 14 7 17 -3 3
-9 2 -12 -2z"/>
<path d="M8932 3343 l1 -48 4 42 c3 29 9 43 21 46 12 3 11 5 -5 6 -21 1 -23
-3 -21 -46z"/>
<path d="M9023 3345 c0 -27 2 -38 4 -22 2 15 2 37 0 50 -2 12 -4 0 -4 -28z"/>
<path d="M9090 3381 c0 -4 11 -6 25 -3 14 2 25 6 25 8 0 2 -11 4 -25 4 -14 0
-25 -4 -25 -9z"/>
<path d="M9153 3345 c0 -27 2 -38 4 -22 2 15 2 37 0 50 -2 12 -4 0 -4 -28z"/>
<path d="M9198 3383 c7 -3 16 -2 19 1 4 3 -2 6 -13 5 -11 0 -14 -3 -6 -6z"/>
<path d="M8760 3370 c0 -5 5 -10 10 -10 6 0 10 5 10 10 0 6 -4 10 -10 10 -5 0
-10 -4 -10 -10z"/>
<path d="M9232 3360 c0 -14 2 -19 5 -12 2 6 2 18 0 25 -3 6 -5 1 -5 -13z"/>
<path d="M9276 3364 c-9 -24 -2 -26 12 -4 7 11 8 20 3 20 -5 0 -12 -7 -15 -16z"/>
<path d="M8720 3363 c0 -18 20 -66 25 -61 3 3 -1 20 -9 39 -9 19 -15 29 -16
22z"/>
<path d="M8991 3345 c0 -12 -5 -26 -11 -33 -5 -7 -3 -6 6 2 9 7 14 22 11 32
-4 17 -5 17 -6 -1z"/>
<path d="M8846 3335 c-9 -26 -7 -32 5 -12 6 10 9 21 6 23 -2 3 -7 -2 -11 -11z"/>
<path d="M9206 3330 c12 -4 24 -16 28 -25 5 -14 9 -15 21 -5 8 7 15 18 15 24
0 6 -5 3 -11 -7 -10 -18 -12 -18 -26 2 -8 12 -22 21 -31 20 -13 0 -12 -2 4 -9z"/>
<path d="M8796 3321 c-4 -7 -5 -15 -2 -18 9 -9 19 4 14 18 -4 11 -6 11 -12 0z"/>
<path d="M9310 3321 c0 -6 4 -13 10 -16 6 -3 7 1 4 9 -7 18 -14 21 -14 7z"/>
<path d="M6910 3160 c0 -46 2 -50 23 -49 16 1 18 2 5 6 -10 2 -18 13 -18 23 0
10 8 21 18 23 16 4 16 5 0 6 -26 2 -22 29 5 34 19 4 18 4 -5 6 -27 1 -28 -1
-28 -49z"/>
<path d="M6984 3160 c1 -38 4 -45 21 -46 14 -1 15 0 3 3 -12 3 -18 17 -21 46
l-4 42 1 -45z"/>
<path d="M7118 3203 c7 -3 16 -2 19 1 4 3 -2 6 -13 5 -11 0 -14 -3 -6 -6z"/>
<path d="M6783 3160 c0 -25 2 -35 4 -22 3 15 11 22 28 22 17 0 25 -7 28 -22 2
-13 4 -3 4 22 1 25 -1 37 -4 28 -3 -11 -14 -18 -28 -18 -14 0 -25 7 -28 18 -3
9 -5 -3 -4 -28z"/>
<path d="M7085 3189 c-4 -6 -5 -12 -2 -15 2 -3 7 2 10 11 7 17 1 20 -8 4z"/>
<path d="M7173 3160 c0 -25 2 -34 4 -21 4 19 10 22 34 19 16 -3 29 -1 29 4 0
4 -13 8 -29 8 -20 0 -31 6 -34 18 -3 9 -5 -3 -4 -28z"/>
<path d="M7128 3153 c17 -7 15 -31 -3 -36 -11 -4 -10 -4 2 -3 25 2 31 46 6 45
-10 0 -13 -3 -5 -6z"/>
<path d="M7266 3145 c-9 -26 -7 -32 5 -12 6 10 9 21 6 23 -2 3 -7 -2 -11 -11z"/>
<path d="M7310 3155 c0 -5 5 -17 10 -25 5 -8 10 -10 10 -5 0 6 -5 17 -10 25
-5 8 -10 11 -10 5z"/>
<path d="M7080 3141 c0 -6 4 -13 10 -16 6 -3 7 1 4 9 -7 18 -14 21 -14 7z"/>
<path d="M7445 3190 c3 -5 8 -10 11 -10 2 0 4 5 4 10 0 6 -5 10 -11 10 -5 0
-7 -4 -4 -10z"/>
<path d="M7504 3158 c1 -36 4 -43 21 -44 14 -1 15 0 3 3 -11 3 -18 17 -21 44
l-4 39 1 -42z"/>
<path d="M7631 2813 c1 -27 4 -38 6 -25 3 14 12 22 25 22 15 0 19 -5 15 -20
-3 -11 -1 -20 3 -20 5 0 8 19 8 43 -1 23 -3 34 -6 25 -4 -21 -42 -24 -42 -4 0
8 8 17 18 19 13 4 11 5 -5 6 -21 1 -23 -3 -22 -46z"/>
<path d="M7737 2853 c-11 -18 -36 -83 -32 -83 7 0 45 83 41 87 -2 3 -6 1 -9
-4z"/>
<path d="M7792 2853 c12 -3 18 -17 21 -46 l4 -42 1 42 c2 30 7 43 20 46 9 3
-1 5 -23 5 -22 0 -32 -2 -23 -5z"/>
<path d="M7930 2840 c0 -26 -46 -28 -53 -2 -3 9 -5 -3 -4 -28 0 -25 2 -35 4
-22 3 15 11 22 28 22 17 0 25 -7 28 -22 2 -13 5 -2 6 25 0 26 -1 47 -4 47 -3
0 -5 -9 -5 -20z"/>
<path d="M7980 2851 c0 -5 5 -13 10 -16 6 -3 10 -2 10 4 0 5 -4 13 -10 16 -5
3 -10 2 -10 -4z"/>
<path d="M7755 2808 c4 -13 11 -27 16 -33 5 -5 4 5 -2 23 -12 36 -24 44 -14
10z"/>
<path d="M8000 2815 c0 -5 5 -17 10 -25 5 -8 10 -10 10 -5 0 6 -5 17 -10 25
-5 8 -10 11 -10 5z"/>
<path d="M7233 2255 c0 -27 2 -38 4 -22 2 15 2 37 0 50 -2 12 -4 0 -4 -28z"/>
<path d="M7260 2286 c0 -8 4 -17 9 -20 5 -4 7 3 4 14 -6 23 -13 26 -13 6z"/>
<path d="M7280 2220 c-23 -7 -23 -8 -3 -9 12 -1 25 4 28 9 3 6 5 10 3 9 -2 -1
-14 -5 -28 -9z"/>
<path d="M5823 2715 c0 -27 2 -38 4 -22 2 15 2 37 0 50 -2 12 -4 0 -4 -28z"/>
<path d="M5982 2748 c-7 -7 -12 -16 -12 -22 0 -5 6 -3 13 6 6 9 21 18 32 21
20 5 20 5 0 6 -12 0 -26 -4 -33 -11z"/>
<path d="M5896 2725 c-9 -26 -7 -32 5 -12 6 10 9 21 6 23 -2 3 -7 -2 -11 -11z"/>
<path d="M5920 2735 c0 -5 5 -17 10 -25 5 -8 10 -10 10 -5 0 6 -5 17 -10 25
-5 8 -10 11 -10 5z"/>
<path d="M5973 2696 c1 -11 9 -21 17 -23 10 -3 11 -2 4 4 -6 4 -14 15 -17 23
-5 11 -6 9 -4 -4z"/>
<path d="M8453 2805 c0 -22 2 -30 4 -17 2 12 2 30 0 40 -3 9 -5 -1 -4 -23z"/>
<path d="M8512 2803 c-2 -37 -5 -42 -29 -46 l-28 -4 28 -2 c32 -1 40 13 34 61
-3 30 -4 30 -5 -9z"/>
<path d="M8565 2829 c-4 -6 -5 -12 -2 -15 2 -3 7 2 10 11 7 17 1 20 -8 4z"/>
<path d="M8632 2798 c-2 -44 0 -48 21 -48 29 0 47 18 47 45 0 22 -17 45 -34
45 -5 0 -2 -6 8 -13 25 -18 18 -61 -11 -65 -19 -3 -22 2 -26 40 l-4 43 -1 -47z"/>
<path d="M8722 2798 c-2 -44 0 -48 21 -48 24 0 47 17 47 35 0 5 -5 2 -11 -7
-5 -10 -19 -18 -29 -18 -15 0 -20 9 -23 43 l-4 42 -1 -47z"/>
<path d="M8766 2833 c6 -4 14 -15 17 -23 5 -11 6 -9 4 4 -1 11 -9 21 -17 23
-10 3 -11 2 -4 -4z"/>
<path d="M8835 2829 c-4 -6 -5 -12 -2 -15 2 -3 7 2 10 11 7 17 1 20 -8 4z"/>
<path d="M8903 2795 c0 -27 2 -38 4 -22 2 15 2 37 0 50 -2 12 -4 0 -4 -28z"/>
<path d="M8584 2806 c5 -15 2 -17 -13 -13 -19 5 -38 -19 -26 -31 3 -3 5 0 5 6
0 7 11 12 25 12 27 0 30 7 14 30 -9 12 -10 12 -5 -4z"/>
<path d="M8854 2806 c5 -15 2 -17 -13 -13 -19 5 -38 -19 -26 -31 3 -3 5 0 5 6
0 7 11 12 25 12 27 0 30 7 14 30 -9 12 -10 12 -5 -4z"/>
<path d="M6483 2255 c0 -27 2 -38 4 -22 2 15 2 37 0 50 -2 12 -4 0 -4 -28z"/>
<path d="M6543 2255 c0 -27 2 -38 4 -22 2 15 2 37 0 50 -2 12 -4 0 -4 -28z"/>
<path d="M6597 2293 c-3 -5 -12 -26 -21 -48 -11 -28 -12 -35 -2 -22 7 9 23 17
35 17 11 0 21 4 21 9 0 5 -9 7 -20 4 -23 -6 -25 0 -10 28 10 18 7 28 -3 12z"/>
<path d="M6662 2258 c-2 -40 1 -48 16 -48 9 0 24 5 32 10 11 8 8 9 -12 4 -25
-6 -27 -4 -31 38 l-4 43 -1 -47z"/>
<path d="M6708 2288 c7 -7 12 -21 12 -32 0 -10 3 -17 6 -13 10 10 -5 57 -18
57 -9 0 -9 -3 0 -12z"/>
<path d="M6752 2253 c-1 -30 -7 -53 -14 -56 -10 -4 -10 -6 0 -6 18 -1 24 20
19 70 l-4 44 -1 -52z"/>
<path d="M6900 2280 c0 -14 -7 -20 -22 -21 -15 0 -18 -2 -8 -6 8 -3 23 -15 33
-27 17 -19 18 -20 9 -1 -6 11 -8 33 -5 48 3 15 3 27 -1 27 -3 0 -6 -9 -6 -20z"/>
<path d="M7046 2284 c-9 -24 -7 -27 9 -10 17 17 19 26 6 26 -5 0 -12 -7 -15
-16z"/>
<path d="M7126 2287 c3 -10 9 -15 12 -12 3 3 0 11 -7 18 -10 9 -11 8 -5 -6z"/>
<path d="M7140 2254 c0 -13 18 -39 24 -34 2 3 -2 14 -10 24 -8 11 -14 16 -14
10z"/>
<path d="M7027 2236 c-3 -8 -18 -16 -34 -19 -28 -4 -28 -4 3 -6 21 0 34 5 38
15 4 11 14 15 31 12 14 -3 25 -1 25 3 0 15 -58 10 -63 -5z"/>
<path d="M6798 2213 c6 -2 18 -2 25 0 6 3 1 5 -13 5 -14 0 -19 -2 -12 -5z"/>
<path d="M8918 2193 c6 -2 18 -2 25 0 6 3 1 5 -13 5 -14 0 -19 -2 -12 -5z"/>
<path d="M8983 2155 c0 -27 2 -38 4 -22 2 15 2 37 0 50 -2 12 -4 0 -4 -28z"/>
<path d="M9013 2155 c0 -27 2 -38 4 -22 2 15 2 37 0 50 -2 12 -4 0 -4 -28z"/>
<path d="M9106 2187 c3 -10 9 -15 12 -12 3 3 0 11 -7 18 -10 9 -11 8 -5 -6z"/>
<path d="M8924 2157 c18 -16 26 -29 21 -37 -5 -9 -4 -11 3 -6 19 12 14 23 -20
46 l-33 22 29 -25z"/>
<path d="M9120 2155 c0 -5 5 -17 10 -25 5 -8 10 -10 10 -5 0 6 -5 17 -10 25
-5 8 -10 11 -10 5z"/>
<path d="M9076 2135 c-9 -26 -7 -32 5 -12 6 10 9 21 6 23 -2 3 -7 -2 -11 -11z"/>
<path d="M7143 1805 c0 -27 2 -38 4 -22 2 15 2 37 0 50 -2 12 -4 0 -4 -28z"/>
<path d="M7341 1786 c-16 -19 -10 -68 9 -73 12 -4 12 -3 2 5 -8 5 -12 22 -10
38 2 23 9 30 33 35 29 6 29 7 4 8 -15 0 -32 -5 -38 -13z"/>
<path d="M7422 1770 c0 -19 2 -27 5 -17 2 9 2 25 0 35 -3 9 -5 1 -5 -18z"/>
<path d="M7521 1753 c1 -27 4 -38 6 -26 2 12 12 24 21 26 15 4 15 5 0 6 -26 2
-22 29 5 34 19 4 18 4 -5 6 -27 1 -28 -1 -27 -46z"/>
<path d="M7592 1753 l1 -48 4 43 c3 27 9 42 18 42 20 0 29 -19 16 -34 -8 -9
-6 -18 5 -32 15 -18 15 -18 5 2 -7 15 -7 24 1 32 15 15 -7 42 -33 42 -16 0
-19 -7 -17 -47z"/>
<path d="M7706 1760 c3 -14 11 -32 16 -40 6 -10 7 -7 2 10 -3 14 -11 32 -16
40 -6 10 -7 7 -2 -10z"/>
<path d="M7392 1730 c0 -14 2 -19 5 -12 2 6 2 18 0 25 -3 6 -5 1 -5 -13z"/>
<path d="M7666 1735 c-9 -26 -7 -32 5 -12 6 10 9 21 6 23 -2 3 -7 -2 -11 -11z"/>
<path d="M7430 1720 c0 -5 5 -10 11 -10 5 0 7 5 4 10 -3 6 -8 10 -11 10 -2 0
-4 -4 -4 -10z"/>
<path d="M7475 1720 c-3 -5 -1 -10 4 -10 6 0 11 5 11 10 0 6 -2 10 -4 10 -3 0
-8 -4 -11 -10z"/>
<path d="M6422 1803 l1 -48 4 43 c4 43 17 52 43 30 12 -11 12 -10 1 5 -7 9
-22 17 -32 17 -16 0 -19 -7 -17 -47z"/>
<path d="M6561 1803 c1 -26 4 -37 6 -24 4 18 10 22 27 19 19 -4 23 0 22 21 -1
21 -7 27 -28 29 -27 3 -28 2 -27 -45z m49 22 c0 -8 -9 -15 -20 -15 -11 0 -20
7 -20 15 0 8 9 15 20 15 11 0 20 -7 20 -15z"/>
<path d="M6667 1844 c-11 -11 -8 -26 3 -19 6 3 10 1 10 -6 0 -7 3 -10 6 -6 3
3 2 13 -3 22 -5 8 -12 12 -16 9z"/>
<path d="M6736 1834 c-9 -8 -16 -23 -16 -32 0 -12 4 -9 13 8 7 13 23 27 37 31
23 6 23 7 3 8 -12 1 -29 -6 -37 -15z"/>
<path d="M6821 1813 c-1 -23 3 -44 7 -47 4 -2 6 12 4 32 -5 56 -10 62 -11 15z"/>
<path d="M6880 1808 c-3 -26 -1 -43 3 -39 5 5 7 26 5 47 l-3 39 -5 -47z"/>
<path d="M6952 1803 l1 -48 4 44 c4 37 7 42 24 38 10 -3 17 -1 13 4 -3 5 -14
9 -25 9 -16 0 -19 -7 -17 -47z"/>
<path d="M6913 1800 c0 -25 2 -35 4 -22 2 12 2 32 0 45 -2 12 -4 2 -4 -23z"/>
<path d="M7022 1790 c0 -19 2 -27 5 -17 2 9 2 25 0 35 -3 9 -5 1 -5 -18z"/>
<path d="M6646 1795 c-9 -26 -7 -32 5 -12 6 10 9 21 6 23 -2 3 -7 -2 -11 -11z"/>
<path d="M6380 1795 c0 -5 5 -17 10 -25 5 -8 10 -10 10 -5 0 6 -5 17 -10 25
-5 8 -10 11 -10 5z"/>
<path d="M6792 1780 c0 -14 2 -19 5 -12 2 6 2 18 0 25 -3 6 -5 1 -5 -13z"/>
<path d="M6980 1791 c0 -6 4 -13 10 -16 6 -3 7 1 4 9 -7 18 -14 21 -14 7z"/>
<path d="M7050 1793 c0 -15 19 -37 26 -31 3 4 -1 14 -10 23 -9 9 -16 13 -16 8z"/>
<path d="M6605 1770 c-3 -5 -1 -10 4 -10 6 0 11 5 11 10 0 6 -2 10 -4 10 -3 0
-8 -4 -11 -10z"/>
<path d="M6783 1365 c0 -27 2 -38 4 -22 2 15 2 37 0 50 -2 12 -4 0 -4 -28z"/>
<path d="M6928 1403 c6 -2 18 -2 25 0 6 3 1 5 -13 5 -14 0 -19 -2 -12 -5z"/>
<path d="M6992 1403 c12 -3 18 -17 21 -46 l4 -42 1 42 c2 30 7 43 20 46 9 3
-1 5 -23 5 -22 0 -32 -2 -23 -5z"/>
<path d="M6939 1362 c15 -12 21 -24 16 -32 -5 -9 -4 -11 3 -6 20 12 13 32 -15
45 l-28 12 24 -19z"/>
<path d="M8324 1548 c-4 -6 5 -21 22 -35 24 -19 27 -25 14 -33 -9 -6 -10 -10
-3 -10 25 0 25 24 0 45 -33 25 -34 32 -4 38 22 4 22 4 0 6 -12 0 -25 -4 -29
-11z"/>
<path d="M8482 1518 c-2 -46 -1 -48 26 -47 22 1 23 2 5 6 -18 3 -23 13 -26 46
l-4 42 -1 -47z"/>
<path d="M8565 1549 c-4 -6 -5 -12 -2 -15 2 -3 7 2 10 11 7 17 1 20 -8 4z"/>
<path d="M8630 1513 c0 -25 2 -44 4 -42 8 10 13 89 5 89 -5 0 -9 -21 -9 -47z"/>
<path d="M8707 1518 c8 -59 13 -61 13 -5 0 26 -4 47 -9 47 -5 0 -7 -19 -4 -42z"/>
<path d="M8767 1554 c-2 -5 -12 -27 -21 -49 -11 -28 -12 -35 -2 -22 7 9 20 17
29 17 9 0 21 -8 27 -17 11 -17 11 -17 6 0 -3 10 -6 21 -6 23 0 2 -9 4 -20 4
-21 0 -27 15 -10 25 6 3 10 1 10 -6 0 -7 3 -10 6 -6 3 3 2 13 -4 23 -5 9 -12
13 -15 8z"/>
<path d="M8833 1553 c9 -2 25 -2 35 0 9 3 1 5 -18 5 -19 0 -27 -2 -17 -5z"/>
<path d="M8406 1524 c-9 -23 -8 -24 19 -24 14 0 25 4 25 9 0 5 -9 7 -20 4 -16
-4 -19 -2 -14 11 3 9 4 16 1 16 -3 0 -8 -7 -11 -16z"/>
<path d="M8584 1526 c5 -15 2 -17 -13 -13 -19 5 -38 -19 -26 -31 3 -3 5 0 5 6
0 7 11 12 25 12 27 0 30 7 14 30 -9 12 -10 12 -5 -4z"/>
<path d="M8680 1501 c0 -7 -4 -9 -10 -6 -5 3 -10 2 -10 -4 0 -5 4 -12 9 -15
10 -6 25 24 16 32 -3 3 -5 0 -5 -7z"/>
<path d="M8288 1033 c19 -4 22 -9 18 -31 -3 -15 -2 -33 2 -40 5 -7 8 5 8 30
-1 39 -4 43 -26 45 -23 1 -23 1 -2 -4z"/>
<path d="M8343 995 c0 -27 2 -38 4 -22 2 15 2 37 0 50 -2 12 -4 0 -4 -28z"/>
<path d="M6473 1365 c0 -27 2 -40 4 -27 2 12 7 22 10 22 2 0 14 -10 24 -22
l20 -23 -17 28 c-16 26 -16 29 2 50 18 21 17 20 -8 -1 l-26 -24 -5 24 c-2 12
-4 1 -4 -27z"/>
<path d="M6558 1403 c6 -2 18 -2 25 0 6 3 1 5 -13 5 -14 0 -19 -2 -12 -5z"/>
<path d="M6621 1363 c1 -27 4 -38 6 -25 2 12 10 22 17 22 8 0 20 8 27 18 11
14 11 15 -1 5 -19 -17 -40 -16 -40 1 0 8 10 17 23 19 19 4 18 4 -5 6 -27 1
-28 -1 -27 -46z"/>
<path d="M6558 1363 c6 -2 18 -2 25 0 6 3 1 5 -13 5 -14 0 -19 -2 -12 -5z"/>
<path d="M6428 1353 c7 -3 16 -2 19 1 4 3 -2 6 -13 5 -11 0 -14 -3 -6 -6z"/>
<path d="M6670 1348 c0 -9 -6 -19 -12 -21 -10 -4 -10 -6 0 -6 14 -1 28 26 18
36 -3 4 -6 -1 -6 -9z"/>
<path d="M6558 1323 c6 -2 18 -2 25 0 6 3 1 5 -13 5 -14 0 -19 -2 -12 -5z"/>
<path d="M7522 995 c1 -39 2 -42 5 -16 3 26 7 31 14 20 5 -8 9 -9 9 -3 0 5 -7
19 -15 30 -13 17 -14 15 -13 -31z"/>
<path d="M7597 998 c8 -59 13 -61 13 -5 0 26 -4 47 -9 47 -5 0 -7 -19 -4 -42z"/>
<path d="M7642 1028 c-7 -7 -11 -23 -11 -37 1 -24 2 -24 8 4 5 24 12 30 31 30
20 0 26 -6 28 -29 2 -16 -2 -33 -10 -38 -10 -8 -10 -9 2 -5 19 5 25 54 9 73
-14 17 -41 18 -57 2z"/>
<path d="M7730 1020 c6 -11 13 -20 16 -20 2 0 0 9 -6 20 -6 11 -13 20 -16 20
-2 0 0 -9 6 -20z"/>
<path d="M7765 1010 c-8 -16 -15 -37 -14 -47 0 -12 3 -9 8 8 5 14 14 35 20 47
6 12 9 22 7 22 -3 0 -12 -13 -21 -30z"/>
<path d="M7807 1033 c-4 -3 -6 -25 -6 -47 1 -23 4 -31 6 -19 2 13 13 24 26 26
l22 4 -22 2 c-13 0 -23 7 -23 15 0 8 10 17 23 19 20 4 20 4 1 6 -11 0 -24 -2
-27 -6z"/>
<path d="M7880 1033 c0 -6 8 -17 18 -24 16 -13 16 -13 2 6 -8 11 -16 22 -17
24 -2 2 -3 0 -3 -6z"/>
<path d="M7940 998 c0 -39 -1 -41 -16 -22 -14 18 -15 18 -4 -3 17 -36 30 -27
30 22 0 25 -2 45 -5 45 -3 0 -5 -19 -5 -42z"/>
<path d="M8038 1033 c6 -2 18 -2 25 0 6 3 1 5 -13 5 -14 0 -19 -2 -12 -5z"/>
<path d="M8093 995 c0 -27 2 -40 4 -27 3 15 11 22 28 22 17 0 25 -7 28 -22 2
-13 4 0 4 27 0 28 -2 40 -4 28 -3 -16 -11 -23 -28 -23 -17 0 -25 7 -28 23 -2
12 -4 0 -4 -28z"/>
<path d="M8005 1010 c-6 -18 9 -60 21 -60 2 0 0 9 -6 20 -6 12 -8 30 -5 40 4
11 4 20 1 20 -2 0 -7 -9 -11 -20z"/>
<path d="M7576 995 c-9 -26 -7 -32 5 -12 6 10 9 21 6 23 -2 3 -7 -2 -11 -11z"/>
<path d="M7550 971 c0 -6 4 -13 10 -16 6 -3 7 1 4 9 -7 18 -14 21 -14 7z"/>
<path d="M6765 1069 c-4 -6 -5 -12 -2 -15 2 -3 7 2 10 11 7 17 1 20 -8 4z"/>
<path d="M6830 1035 c0 -27 2 -46 4 -44 8 8 10 78 3 85 -4 4 -7 -14 -7 -41z"/>
<path d="M6890 1043 l0 -38 -21 25 -21 25 18 -32 c25 -45 34 -41 34 12 0 25
-2 45 -5 45 -3 0 -5 -17 -5 -37z"/>
<path d="M6932 1033 l1 -48 4 42 c3 29 9 43 21 46 12 3 11 5 -5 6 -21 1 -23
-3 -21 -46z"/>
<path d="M7022 1028 c-1 -34 -7 -58 -14 -61 -10 -4 -10 -6 0 -6 18 -1 24 20
19 75 l-3 49 -2 -57z"/>
<path d="M6988 1043 c3 -18 -1 -30 -13 -40 -11 -7 -14 -13 -9 -13 27 0 48 60
25 74 -4 3 -6 -6 -3 -21z"/>
<path d="M7053 1030 c0 -25 2 -35 4 -22 2 12 2 32 0 45 -2 12 -4 2 -4 -23z"/>
<path d="M7093 1030 c0 -25 2 -35 4 -22 2 12 2 32 0 45 -2 12 -4 2 -4 -23z"/>
<path d="M6790 1025 c0 -5 5 -17 10 -25 5 -8 10 -10 10 -5 0 6 -5 17 -10 25
-5 8 -10 11 -10 5z"/>
<path d="M6293 725 c0 -27 2 -38 4 -22 2 15 2 37 0 50 -2 12 -4 0 -4 -28z"/>
<path d="M6352 720 c0 -14 2 -19 5 -12 2 6 2 18 0 25 -3 6 -5 1 -5 -13z"/>
<path d="M7212 643 c1 -45 2 -46 5 -9 4 35 5 37 19 20 14 -18 14 -18 4 3 -19
41 -30 36 -28 -14z"/>
<path d="M7312 643 l1 -48 4 42 c3 29 9 43 21 46 12 3 11 5 -5 6 -21 1 -23 -3
-21 -46z"/>
<path d="M7449 679 c19 -8 23 -15 19 -43 -2 -19 0 -32 4 -30 12 8 9 59 -4 72
-7 7 -19 12 -27 11 -10 0 -6 -4 8 -10z"/>
<path d="M7271 652 c-1 -24 -5 -31 -13 -26 -8 5 -7 0 2 -11 14 -18 15 -18 18
3 2 12 1 32 -1 45 -3 15 -5 12 -6 -11z"/>
<path d="M7368 649 c3 -20 0 -35 -9 -41 -12 -8 -11 -9 1 -5 17 4 26 55 12 69
-5 5 -7 -4 -4 -23z"/>
<path d="M7407 673 c-9 -9 -9 -61 1 -66 4 -3 7 12 7 34 0 21 0 39 -1 39 0 0
-4 -3 -7 -7z"/>
<path d="M7166 650 c3 -14 11 -32 16 -40 6 -10 7 -7 2 10 -3 14 -11 32 -16 40
-6 10 -7 7 -2 -10z"/>
<path d="M7126 625 c-9 -26 -7 -32 5 -12 6 10 9 21 6 23 -2 3 -7 -2 -11 -11z"/>
<path d="M6488 763 c6 -2 18 -2 25 0 6 3 1 5 -13 5 -14 0 -19 -2 -12 -5z"/>
<path d="M6578 763 c7 -3 16 -2 19 1 4 3 -2 6 -13 5 -11 0 -14 -3 -6 -6z"/>
<path d="M6650 767 c0 -13 52 -87 61 -87 5 0 8 21 7 48 l-1 47 -4 -44 -4 -44
-30 44 c-16 24 -29 41 -29 36z"/>
<path d="M6758 763 c6 -2 18 -2 25 0 6 3 1 5 -13 5 -14 0 -19 -2 -12 -5z"/>
<path d="M6454 746 c-3 -8 -4 -23 -2 -33 3 -11 6 -6 9 15 6 34 2 42 -7 18z"/>
<path d="M6546 745 c-3 -9 -6 -22 -5 -28 0 -7 5 -1 10 12 5 13 8 26 5 28 -2 2
-6 -3 -10 -12z"/>
<path d="M6758 723 c6 -2 18 -2 25 0 6 3 1 5 -13 5 -14 0 -19 -2 -12 -5z"/>
<path d="M6462 563 l1 -48 4 42 c3 29 9 43 21 46 12 3 11 5 -5 6 -21 1 -23 -3
-21 -46z"/>
<path d="M6551 563 c1 -27 4 -38 6 -26 2 13 13 24 26 26 l22 4 -22 2 c-13 0
-23 7 -23 15 0 8 10 17 23 19 19 4 18 4 -5 6 -27 1 -28 -1 -27 -46z"/>
<path d="M6518 573 c3 -18 -1 -30 -13 -40 -11 -7 -14 -13 -9 -13 27 0 48 60
25 74 -4 3 -6 -6 -3 -21z"/>
<path d="M7011 643 l2 -48 7 40 c4 22 8 34 9 26 0 -8 3 -12 6 -9 8 7 -5 38
-16 38 -5 0 -8 -21 -8 -47z"/>
<path d="M6817 604 c-11 -11 -8 -26 3 -19 6 3 10 1 10 -6 0 -7 3 -10 6 -6 3 3
2 13 -3 22 -5 8 -12 12 -16 9z"/>
<path d="M6883 565 c0 -27 2 -38 4 -22 2 15 2 37 0 50 -2 12 -4 0 -4 -28z"/>
<path d="M6796 555 c-9 -26 -7 -32 5 -12 6 10 9 21 6 23 -2 3 -7 -2 -11 -11z"/>
<path d="M6670 540 c6 -11 15 -20 20 -20 6 0 2 9 -7 20 -10 11 -19 20 -21 20
-1 0 2 -9 8 -20z"/>
<path d="M6840 555 c0 -5 5 -17 10 -25 5 -8 10 -10 10 -5 0 6 -5 17 -10 25 -5
8 -10 11 -10 5z"/>
<path d="M6172 1838 c-7 -7 -12 -16 -12 -22 0 -5 6 -3 13 6 6 9 21 18 32 21
20 5 20 5 0 6 -12 0 -26 -4 -33 -11z"/>
<path d="M6163 1786 c1 -11 9 -21 17 -23 10 -3 11 -2 4 4 -6 4 -14 15 -17 23
-5 11 -6 9 -4 -4z"/>
<path d="M14095 1499 c-11 -17 1 -21 15 -4 8 9 8 15 2 15 -6 0 -14 -5 -17 -11z"/>
<path d="M14348 1488 c-2 -17 -9 -22 -25 -20 -31 4 -48 -33 -34 -70 8 -22 16
-27 41 -25 l30 2 0 68 c0 66 -6 88 -12 45z m-3 -68 c0 -29 -32 -41 -41 -16 -9
24 4 48 23 44 12 -2 18 -12 18 -28z"/>
<path d="M14392 1485 c0 -16 2 -22 5 -12 2 9 2 23 0 30 -3 6 -5 -1 -5 -18z"/>
<path d="M13730 1445 c0 -50 3 -57 26 -67 42 -20 59 -1 60 68 1 32 0 43 -3 24
-7 -71 -12 -81 -36 -78 -19 3 -22 10 -25 56 -4 69 -22 67 -22 -3z"/>
<path d="M13950 1490 c0 -5 5 -10 10 -10 6 0 10 5 10 10 0 6 -4 10 -10 10 -5
0 -10 -4 -10 -10z"/>
<path d="M14880 1489 c0 -5 5 -7 10 -4 6 3 10 8 10 11 0 2 -4 4 -10 4 -5 0
-10 -5 -10 -11z"/>
<path d="M15175 1490 c3 -5 8 -10 11 -10 2 0 4 5 4 10 0 6 -5 10 -11 10 -5 0
-7 -4 -4 -10z"/>
<path d="M13997 1478 c-2 -7 -1 -33 2 -58 4 -32 11 -46 24 -48 9 -2 17 1 17 7
0 6 -4 11 -10 11 -13 0 -13 57 0 65 6 4 5 12 -4 21 -18 17 -23 18 -29 2z"/>
<path d="M15113 1476 c-6 -8 -8 -17 -3 -22 5 -5 10 -24 12 -43 2 -19 8 -36 13
-38 9 -3 10 31 5 110 0 11 -14 8 -27 -7z"/>
<path d="M13851 1415 l2 -50 6 40 c5 31 10 40 26 40 16 0 21 -9 26 -40 7 -38
7 -38 5 10 -1 49 -1 50 -33 50 l-33 1 1 -51z"/>
<path d="M13950 1420 c0 -27 5 -50 10 -50 6 0 10 23 10 50 0 28 -4 50 -10 50
-5 0 -10 -22 -10 -50z"/>
<path d="M14066 1454 c-9 -8 -16 -24 -16 -34 0 -19 25 -50 40 -50 5 0 17 3 27
7 15 6 13 8 -11 13 -38 6 -40 24 -3 28 29 4 35 20 15 40 -16 16 -33 15 -52 -4z
m44 -14 c0 -5 -9 -10 -21 -10 -11 0 -17 5 -14 10 3 6 13 10 21 10 8 0 14 -4
14 -10z"/>
<path d="M14163 1463 c-21 -8 -15 -33 12 -45 14 -6 25 -15 25 -19 0 -13 -18
-20 -25 -9 -8 13 -25 13 -25 1 0 -13 34 -23 54 -15 25 10 20 43 -9 50 -25 6
-31 15 -18 27 3 4 12 2 20 -5 7 -6 17 -8 20 -4 15 15 -28 30 -54 19z"/>
<path d="M14421 1456 c-31 -37 9 -103 47 -80 36 23 23 94 -18 94 -10 0 -23 -6
-29 -14z m53 -21 c8 -23 -4 -45 -25 -45 -14 0 -19 7 -19 30 0 23 5 30 19 30
10 0 21 -7 25 -15z"/>
<path d="M14522 1415 c1 -44 2 -45 5 -12 2 21 11 41 19 44 21 8 17 22 -6 20
-17 -1 -20 -8 -18 -52z"/>
<path d="M14578 1445 c-16 -35 4 -79 32 -72 13 3 20 0 20 -8 0 -8 -12 -15 -27
-17 -25 -4 -26 -5 -9 -13 34 -15 51 7 54 71 l3 59 -31 2 c-24 2 -33 -3 -42
-22z m57 -25 c0 -29 -32 -41 -41 -16 -9 24 4 48 23 44 12 -2 18 -12 18 -28z"/>
<path d="M14690 1460 c-8 -5 -11 -12 -7 -16 3 -4 13 -2 20 4 8 7 17 9 20 5 13
-12 7 -22 -15 -25 -17 -2 -23 -10 -23 -28 0 -21 5 -25 33 -27 31 -1 32 0 32
36 0 52 -25 74 -60 51z m40 -55 c0 -8 -9 -15 -20 -15 -20 0 -26 11 -13 23 12
13 33 7 33 -8z"/>
<path d="M14781 1415 l2 -50 6 40 c4 27 12 41 24 43 14 3 17 -4 17 -37 0 -23
5 -41 11 -41 6 0 9 19 7 48 -3 46 -4 47 -35 47 l-33 1 1 -51z"/>
<path d="M14883 1420 c0 -30 2 -43 4 -27 2 15 2 39 0 55 -2 15 -4 2 -4 -28z"/>
<path d="M14932 1458 c-18 -18 -15 -26 19 -44 24 -12 29 -18 18 -24 -8 -5 -19
-4 -26 2 -8 6 -17 8 -20 4 -11 -10 19 -27 42 -24 12 2 21 12 23 25 3 17 -3 24
-22 29 -26 6 -32 15 -19 27 3 4 12 2 20 -5 15 -12 28 -5 18 11 -8 15 -38 14
-53 -1z"/>
<path d="M15027 1463 c-14 -13 -6 -20 18 -15 15 2 25 0 25 -7 0 -6 -8 -11 -19
-11 -10 0 -24 -7 -31 -15 -18 -21 3 -44 41 -43 27 1 29 4 29 38 0 20 -5 41
-12 48 -13 13 -41 16 -51 5z m43 -58 c0 -8 -9 -15 -20 -15 -20 0 -26 11 -13
23 12 13 33 7 33 -8z"/>
<path d="M15170 1420 c0 -27 5 -50 10 -50 6 0 10 23 10 50 0 28 -4 50 -10 50
-5 0 -10 -22 -10 -50z"/>
<path d="M15224 1445 c-15 -23 -15 -27 0 -50 9 -14 23 -25 31 -25 19 0 45 28
45 50 0 22 -26 50 -45 50 -8 0 -22 -11 -31 -25z m51 -25 c0 -16 -6 -26 -18
-28 -19 -4 -32 20 -23 44 9 25 41 13 41 -16z"/>
<path d="M15320 1418 c0 -26 5 -48 10 -48 6 0 10 18 10 40 0 33 3 40 20 40 17
0 20 -7 20 -40 0 -22 5 -40 10 -40 13 0 13 56 0 80 -7 12 -20 18 -40 18 -29
-1 -30 -3 -30 -50z"/>
<path d="M6061 1363 l2 -48 7 40 c4 22 8 34 9 26 0 -8 3 -12 6 -9 8 7 -5 38
-16 38 -5 0 -8 -21 -8 -47z"/>
<path d="M6130 1389 c-7 -11 -9 -23 -6 -27 3 -3 7 1 7 9 1 8 5 -2 9 -21 7 -34
7 -34 9 13 1 52 -3 57 -19 26z"/>
<path d="M6214 1376 c5 -15 2 -17 -14 -13 -11 3 -20 1 -20 -4 0 -5 11 -9 25
-9 27 0 30 7 14 30 -9 12 -10 12 -5 -4z"/>
<path d="M6284 1372 c-6 -4 -8 -18 -4 -32 6 -24 7 -24 11 8 3 17 5 32 5 32 -1
0 -6 -4 -12 -8z"/>
<path d="M6106 1333 c-6 -14 -5 -15 5 -6 7 7 10 15 7 18 -3 3 -9 -2 -12 -12z"/>
<path d="M13837 1104 c-58 -15 -69 -23 -92 -73 -26 -58 -12 -91 50 -114 43
-16 57 -17 122 -6 80 13 83 17 56 73 -15 33 -15 37 0 54 26 29 21 38 -36 59
-46 17 -59 18 -100 7z m80 -26 c34 -12 41 -26 22 -45 -7 -7 -6 -21 5 -48 9
-21 15 -40 13 -42 -2 -1 -30 -6 -63 -9 -75 -8 -134 13 -134 48 0 38 36 86 72
97 45 13 47 13 85 -1z"/>
<path d="M14713 1035 c0 -38 2 -53 4 -32 2 20 2 52 0 70 -2 17 -4 1 -4 -38z"/>
<path d="M14122 1028 l1 -63 6 50 6 50 30 -47 c17 -27 33 -48 38 -48 4 0 6 28
5 63 l-1 62 -6 -50 -6 -50 -33 48 c-18 26 -35 47 -37 47 -3 0 -4 -28 -3 -62z"/>
<path d="M14328 1068 c-8 -24 8 -92 22 -96 12 -4 13 -2 3 9 -15 15 -17 51 -4
65 6 5 4 14 -4 21 -10 9 -15 9 -17 1z"/>
<path d="M14247 1054 c-14 -14 -7 -26 8 -14 8 6 19 9 25 5 16 -10 12 -25 -9
-25 -10 0 -24 -6 -30 -14 -15 -17 6 -36 37 -33 20 1 23 6 20 42 -2 31 -7 41
-23 43 -12 2 -24 0 -28 -4z m41 -56 c-7 -19 -38 -22 -38 -4 0 10 9 16 21 16
12 0 19 -5 17 -12z"/>
<path d="M14383 1015 c0 -27 2 -38 4 -22 2 15 2 37 0 50 -2 12 -4 0 -4 -28z"/>
<path d="M14432 1048 c-7 -7 -12 -21 -12 -33 0 -46 53 -62 71 -21 21 45 -26
87 -59 54z m47 -15 c11 -21 -3 -53 -24 -53 -19 0 -29 38 -15 55 16 20 27 19
39 -2z"/>
<path d="M14521 1011 l2 -46 6 40 c4 26 12 41 23 43 13 3 18 -6 21 -40 l4 -43
-1 45 c-1 42 -3 45 -28 46 -27 1 -28 -1 -27 -45z"/>
<path d="M14619 1043 c-13 -15 -12 -15 9 -2 20 12 24 12 32 -1 7 -12 3 -17
-21 -23 -42 -11 -36 -42 9 -42 29 -1 32 2 32 30 0 50 -34 71 -61 38z m39 -49
c-9 -9 -21 -13 -27 -9 -16 10 -3 25 22 25 20 0 20 -1 5 -16z"/>
<path d="M13875 794 c-6 -2 -29 -8 -53 -14 -36 -9 -46 -17 -64 -55 -17 -35
-20 -51 -12 -72 13 -37 81 -58 155 -49 79 10 85 16 66 64 -14 35 -14 41 0 61
8 12 12 25 9 29 -11 10 -91 39 -101 36z m94 -41 c2 -2 -4 -12 -14 -23 -16 -18
-16 -22 -1 -59 8 -22 12 -42 8 -45 -23 -14 -116 -17 -156 -6 -59 16 -70 53
-33 109 32 49 91 65 152 42 22 -8 42 -16 44 -18z"/>
<path d="M14121 718 c1 -35 4 -51 6 -36 3 22 10 27 36 30 25 2 33 8 35 27 4
28 -12 41 -50 41 -28 0 -28 -1 -27 -62z m64 27 c0 -14 -8 -21 -27 -23 -24 -3
-28 0 -28 23 0 23 4 26 28 23 19 -2 27 -9 27 -23z"/>
<path d="M14222 700 c1 -40 2 -41 5 -11 3 19 12 41 21 47 15 12 15 13 -5 11
-21 -1 -23 -6 -21 -47z"/>
<path d="M14279 729 c-8 -16 -8 -28 0 -45 18 -41 71 -25 71 21 0 44 -50 61
-71 24z m51 -4 c14 -17 4 -55 -15 -55 -21 0 -35 31 -24 52 12 22 23 23 39 3z"/>
<path d="M14379 705 c9 -25 19 -45 22 -45 8 0 32 81 26 87 -3 2 -8 -9 -12 -26
-8 -39 -22 -40 -30 -1 -4 17 -10 30 -15 30 -4 0 0 -20 9 -45z"/>
<path d="M14463 705 c0 -27 2 -38 4 -22 2 15 2 37 0 50 -2 12 -4 0 -4 -28z"/>
<path d="M14492 702 c1 -36 2 -39 5 -15 5 35 29 62 43 47 5 -5 11 -25 13 -44
3 -27 4 -25 3 10 -1 43 -2 45 -33 47 -33 1 -33 1 -31 -45z"/>
<path d="M14590 729 c-17 -31 2 -72 32 -67 12 2 24 10 26 18 5 13 3 13 -12 0
-16 -13 -20 -12 -32 4 -9 13 -10 24 -3 37 11 22 20 24 38 7 11 -11 13 -10 9 2
-7 24 -45 24 -58 -1z"/>
<path d="M14682 738 c-27 -27 -7 -78 29 -78 10 0 20 4 24 9 3 6 -7 9 -21 8
-15 -1 -29 4 -31 11 -3 8 6 12 26 12 19 0 31 5 31 13 0 16 -20 37 -35 37 -6 0
-16 -5 -23 -12z m46 -15 c2 -8 -6 -13 -22 -13 -19 0 -24 4 -19 15 6 18 34 16
41 -2z"/>
<path d="M6171 596 c-16 -19 -10 -68 9 -73 12 -4 12 -3 2 5 -8 5 -12 22 -10
38 2 23 8 29 28 29 19 0 26 -6 31 -30 6 -28 7 -28 8 -4 2 44 -42 66 -68 35z"/>
<path d="M122 193 l-2 -133 590 0 c325 0 590 3 590 8 0 4 -263 6 -585 4 l-584
-2 -4 127 -3 128 -2 -132z"/>
<path d="M233 254 c19 -6 23 -30 5 -36 -8 -3 -7 -6 4 -10 11 -5 15 0 14 20 -1
19 -7 27 -21 29 -16 1 -16 1 -2 -3z"/>
<path d="M286 251 c-4 -5 3 -7 14 -4 23 6 26 13 6 13 -8 0 -17 -4 -20 -9z"/>
<path d="M355 250 c-3 -6 1 -7 9 -4 18 7 21 14 7 14 -6 0 -13 -4 -16 -10z"/>
<path d="M322 215 c0 -16 2 -22 5 -12 2 9 2 23 0 30 -3 6 -5 -1 -5 -18z"/>
<path d="M465 220 c-10 -11 -14 -20 -9 -20 5 0 15 9 22 20 7 11 11 20 9 20 -2
0 -12 -9 -22 -20z"/>
<path d="M534 233 c8 -8 56 -11 51 -3 -3 4 -16 8 -30 8 -14 0 -24 -3 -21 -5z"/>
<path d="M281 214 c0 -11 3 -14 6 -6 3 7 2 16 -1 19 -3 4 -6 -2 -5 -13z"/>
<path d="M235 180 c-16 -7 -17 -9 -3 -9 9 -1 20 4 23 9 7 11 7 11 -20 0z"/>
<path d="M288 178 c5 -5 16 -8 23 -6 8 3 3 7 -10 11 -17 4 -21 3 -13 -5z"/>
<path d="M357 179 c7 -7 15 -10 18 -7 3 3 -2 9 -12 12 -14 6 -15 5 -6 -5z"/>
</g>
</svg>
